  0
SECTION
  2
HEADER
  9
$ACADVER
  1
AC1024
  9
$ACADMAINTVER
 70
6
  9
$DWGCODEPAGE
  3
ANSI_1252
  9
$LASTSAVEDBY
  1
ezdxf
  9
$INSBASE
 10
0.0
 20
0.0
 30
0.0
  9
$EXTMIN
 10
1e+20
 20
1e+20
 30
1e+20
  9
$EXTMAX
 10
-1e+20
 20
-1e+20
 30
-1e+20
  9
$LIMMIN
 10
0.0
 20
0.0
  9
$LIMMAX
 10
420.0
 20
297.0
  9
$ORTHOMODE
 70
0
  9
$REGENMODE
 70
1
  9
$FILLMODE
 70
1
  9
$QTEXTMODE
 70
0
  9
$MIRRTEXT
 70
1
  9
$LTSCALE
 40
1.0
  9
$ATTMODE
 70
1
  9
$TEXTSIZE
 40
2.5
  9
$TRACEWID
 40
1.0
  9
$TEXTSTYLE
  7
Standard
  9
$CLAYER
  8
0
  9
$CELTYPE
  6
ByLayer
  9
$CECOLOR
 62
256
  9
$CELTSCALE
 40
1.0
  9
$DISPSILH
 70
0
  9
$DIMSCALE
 40
1.0
  9
$DIMASZ
 40
2.5
  9
$DIMEXO
 40
0.625
  9
$DIMDLI
 40
3.75
  9
$DIMRND
 40
0.0
  9
$DIMDLE
 40
0.0
  9
$DIMEXE
 40
1.25
  9
$DIMTP
 40
0.0
  9
$DIMTM
 40
0.0
  9
$DIMTXT
 40
2.5
  9
$DIMCEN
 40
2.5
  9
$DIMTSZ
 40
0.0
  9
$DIMTOL
 70
0
  9
$DIMLIM
 70
0
  9
$DIMTIH
 70
0
  9
$DIMTOH
 70
0
  9
$DIMSE1
 70
0
  9
$DIMSE2
 70
0
  9
$DIMTAD
 70
1
  9
$DIMZIN
 70
8
  9
$DIMBLK
  1

  9
$DIMASO
 70
1
  9
$DIMSHO
 70
1
  9
$DIMPOST
  1

  9
$DIMAPOST
  1

  9
$DIMALT
 70
0
  9
$DIMALTD
 70
3
  9
$DIMALTF
 40
0.03937007874
  9
$DIMLFAC
 40
1.0
  9
$DIMTOFL
 70
1
  9
$DIMTVP
 40
0.0
  9
$DIMTIX
 70
0
  9
$DIMSOXD
 70
0
  9
$DIMSAH
 70
0
  9
$DIMBLK1
  1

  9
$DIMBLK2
  1

  9
$DIMSTYLE
  2
ISO-25
  9
$DIMCLRD
 70
0
  9
$DIMCLRE
 70
0
  9
$DIMCLRT
 70
0
  9
$DIMTFAC
 40
1.0
  9
$DIMGAP
 40
0.625
  9
$DIMJUST
 70
0
  9
$DIMSD1
 70
0
  9
$DIMSD2
 70
0
  9
$DIMTOLJ
 70
0
  9
$DIMTZIN
 70
8
  9
$DIMALTZ
 70
0
  9
$DIMALTTZ
 70
0
  9
$DIMUPT
 70
0
  9
$DIMDEC
 70
2
  9
$DIMTDEC
 70
2
  9
$DIMALTU
 70
2
  9
$DIMALTTD
 70
3
  9
$DIMTXSTY
  7
Standard
  9
$DIMAUNIT
 70
0
  9
$DIMADEC
 70
0
  9
$DIMALTRND
 40
0.0
  9
$DIMAZIN
 70
0
  9
$DIMDSEP
 70
44
  9
$DIMATFIT
 70
3
  9
$DIMFRAC
 70
0
  9
$DIMLDRBLK
  1

  9
$DIMLUNIT
 70
2
  9
$DIMLWD
 70
-2
  9
$DIMLWE
 70
-2
  9
$DIMTMOVE
 70
0
  9
$DIMFXL
 40
1.0
  9
$DIMFXLON
 70
0
  9
$DIMJOGANG
 40
0.785398163397
  9
$DIMTFILL
 70
0
  9
$DIMTFILLCLR
 70
0
  9
$DIMARCSYM
 70
0
  9
$DIMLTYPE
  6

  9
$DIMLTEX1
  6

  9
$DIMLTEX2
  6

  9
$DIMTXTDIRECTION
 70
0
  9
$LUNITS
 70
2
  9
$LUPREC
 70
4
  9
$SKETCHINC
 40
1.0
  9
$FILLETRAD
 40
10.0
  9
$AUNITS
 70
0
  9
$AUPREC
 70
2
  9
$MENU
  1
.
  9
$ELEVATION
 40
0.0
  9
$PELEVATION
 40
0.0
  9
$THICKNESS
 40
0.0
  9
$LIMCHECK
 70
0
  9
$CHAMFERA
 40
0.0
  9
$CHAMFERB
 40
0.0
  9
$CHAMFERC
 40
0.0
  9
$CHAMFERD
 40
0.0
  9
$SKPOLY
 70
0
  9
$TDCREATE
 40
2460956.754733796
  9
$TDUCREATE
 40
2458532.153996898
  9
$TDUPDATE
 40
2460956.754733796
  9
$TDUUPDATE
 40
2458532.1544311
  9
$TDINDWG
 40
0.0
  9
$TDUSRTIMER
 40
0.0
  9
$USRTIMER
 70
1
  9
$ANGBASE
 50
0.0
  9
$ANGDIR
 70
0
  9
$PDMODE
 70
0
  9
$PDSIZE
 40
0.0
  9
$PLINEWID
 40
0.0
  9
$SPLFRAME
 70
0
  9
$SPLINETYPE
 70
6
  9
$SPLINESEGS
 70
8
  9
$HANDSEED
  5
9B
  9
$SURFTAB1
 70
6
  9
$SURFTAB2
 70
6
  9
$SURFTYPE
 70
6
  9
$SURFU
 70
6
  9
$SURFV
 70
6
  9
$UCSBASE
  2

  9
$UCSNAME
  2

  9
$UCSORG
 10
0.0
 20
0.0
 30
0.0
  9
$UCSXDIR
 10
1.0
 20
0.0
 30
0.0
  9
$UCSYDIR
 10
0.0
 20
1.0
 30
0.0
  9
$UCSORTHOREF
  2

  9
$UCSORTHOVIEW
 70
0
  9
$UCSORGTOP
 10
0.0
 20
0.0
 30
0.0
  9
$UCSORGBOTTOM
 10
0.0
 20
0.0
 30
0.0
  9
$UCSORGLEFT
 10
0.0
 20
0.0
 30
0.0
  9
$UCSORGRIGHT
 10
0.0
 20
0.0
 30
0.0
  9
$UCSORGFRONT
 10
0.0
 20
0.0
 30
0.0
  9
$UCSORGBACK
 10
0.0
 20
0.0
 30
0.0
  9
$PUCSBASE
  2

  9
$PUCSNAME
  2

  9
$PUCSORG
 10
0.0
 20
0.0
 30
0.0
  9
$PUCSXDIR
 10
1.0
 20
0.0
 30
0.0
  9
$PUCSYDIR
 10
0.0
 20
1.0
 30
0.0
  9
$PUCSORTHOREF
  2

  9
$PUCSORTHOVIEW
 70
0
  9
$PUCSORGTOP
 10
0.0
 20
0.0
 30
0.0
  9
$PUCSORGBOTTOM
 10
0.0
 20
0.0
 30
0.0
  9
$PUCSORGLEFT
 10
0.0
 20
0.0
 30
0.0
  9
$PUCSORGRIGHT
 10
0.0
 20
0.0
 30
0.0
  9
$PUCSORGFRONT
 10
0.0
 20
0.0
 30
0.0
  9
$PUCSORGBACK
 10
0.0
 20
0.0
 30
0.0
  9
$USERI1
 70
0
  9
$USERI2
 70
0
  9
$USERI3
 70
0
  9
$USERI4
 70
0
  9
$USERI5
 70
0
  9
$USERR1
 40
0.0
  9
$USERR2
 40
0.0
  9
$USERR3
 40
0.0
  9
$USERR4
 40
0.0
  9
$USERR5
 40
0.0
  9
$WORLDVIEW
 70
1
  9
$SHADEDGE
 70
3
  9
$SHADEDIF
 70
70
  9
$TILEMODE
 70
1
  9
$MAXACTVP
 70
64
  9
$PINSBASE
 10
0.0
 20
0.0
 30
0.0
  9
$PLIMCHECK
 70
0
  9
$PEXTMIN
 10
1e+20
 20
1e+20
 30
1e+20
  9
$PEXTMAX
 10
-1e+20
 20
-1e+20
 30
-1e+20
  9
$PLIMMIN
 10
0.0
 20
0.0
  9
$PLIMMAX
 10
420.0
 20
297.0
  9
$UNITMODE
 70
0
  9
$VISRETAIN
 70
1
  9
$PLINEGEN
 70
0
  9
$PSLTSCALE
 70
1
  9
$TREEDEPTH
 70
3020
  9
$CMLSTYLE
  2
Standard
  9
$CMLJUST
 70
0
  9
$CMLSCALE
 40
20.0
  9
$PROXYGRAPHICS
 70
1
  9
$MEASUREMENT
 70
1
  9
$CELWEIGHT
370
-1
  9
$ENDCAPS
280
0
  9
$JOINSTYLE
280
0
  9
$LWDISPLAY
290
0
  9
$INSUNITS
 70
6
  9
$HYPERLINKBASE
  1

  9
$STYLESHEET
  1

  9
$XEDIT
290
1
  9
$CEPSNTYPE
380
0
  9
$PSTYLEMODE
290
1
  9
$FINGERPRINTGUID
  2
{FE43825F-C367-4B46-97BF-9339FD328BE4}
  9
$VERSIONGUID
  2
{20245197-6DA8-4C4D-A509-7E0B786212E5}
  9
$EXTNAMES
290
1
  9
$PSVPSCALE
 40
0.0
  9
$OLESTARTUP
290
0
  9
$SORTENTS
280
127
  9
$INDEXCTL
280
0
  9
$HIDETEXT
280
1
  9
$XCLIPFRAME
280
1
  9
$HALOGAP
280
0
  9
$OBSCOLOR
 70
257
  9
$OBSLTYPE
280
0
  9
$INTERSECTIONDISPLAY
280
0
  9
$INTERSECTIONCOLOR
 70
257
  9
$DIMASSOC
280
2
  9
$PROJECTNAME
  1

  9
$CAMERADISPLAY
290
0
  9
$LENSLENGTH
 40
50.0
  9
$CAMERAHEIGHT
 40
0.0
  9
$STEPSPERSEC
 40
24.0
  9
$STEPSIZE
 40
100.0
  9
$3DDWFPREC
 40
2.0
  9
$PSOLWIDTH
 40
0.005
  9
$PSOLHEIGHT
 40
0.08
  9
$LOFTANG1
 40
1.570796326795
  9
$LOFTANG2
 40
1.570796326795
  9
$LOFTMAG1
 40
0.0
  9
$LOFTMAG2
 40
0.0
  9
$LOFTPARAM
 70
7
  9
$LOFTNORMALS
280
1
  9
$LATITUDE
 40
37.795
  9
$LONGITUDE
 40
-122.394
  9
$NORTHDIRECTION
 40
0.0
  9
$TIMEZONE
 70
-8000
  9
$LIGHTGLYPHDISPLAY
280
1
  9
$TILEMODELIGHTSYNCH
280
1
  9
$CMATERIAL
347
20
  9
$SOLIDHIST
280
0
  9
$SHOWHIST
280
1
  9
$DWFFRAME
280
2
  9
$DGNFRAME
280
2
  9
$REALWORLDSCALE
290
1
  9
$INTERFERECOLOR
 62
256
  9
$CSHADOW
280
0
  9
$SHADOWPLANELOCATION
 40
0.0
  0
ENDSEC
  0
SECTION
  2
CLASSES
  0
CLASS
  1
ACDBDICTIONARYWDFLT
  2
AcDbDictionaryWithDefault
  3
ObjectDBX Classes
 90
0
 91
0
280
0
281
0
  0
CLASS
  1
SUN
  2
AcDbSun
  3
SCENEOE
 90
1153
 91
0
280
0
281
0
  0
CLASS
  1
VISUALSTYLE
  2
AcDbVisualStyle
  3
ObjectDBX Classes
 90
4095
 91
0
280
0
281
0
  0
CLASS
  1
MATERIAL
  2
AcDbMaterial
  3
ObjectDBX Classes
 90
1153
 91
0
280
0
281
0
  0
CLASS
  1
SCALE
  2
AcDbScale
  3
ObjectDBX Classes
 90
1153
 91
0
280
0
281
0
  0
CLASS
  1
TABLESTYLE
  2
AcDbTableStyle
  3
ObjectDBX Classes
 90
4095
 91
0
280
0
281
0
  0
CLASS
  1
MLEADERSTYLE
  2
AcDbMLeaderStyle
  3
ACDB_MLEADERSTYLE_CLASS
 90
4095
 91
0
280
0
281
0
  0
CLASS
  1
DICTIONARYVAR
  2
AcDbDictionaryVar
  3
ObjectDBX Classes
 90
0
 91
0
280
0
281
0
  0
CLASS
  1
CELLSTYLEMAP
  2
AcDbCellStyleMap
  3
ObjectDBX Classes
 90
1152
 91
0
280
0
281
0
  0
CLASS
  1
MENTALRAYRENDERSETTINGS
  2
AcDbMentalRayRenderSettings
  3
SCENEOE
 90
1024
 91
0
280
0
281
0
  0
CLASS
  1
ACDBDETAILVIEWSTYLE
  2
AcDbDetailViewStyle
  3
ObjectDBX Classes
 90
1025
 91
0
280
0
281
0
  0
CLASS
  1
ACDBSECTIONVIEWSTYLE
  2
AcDbSectionViewStyle
  3
ObjectDBX Classes
 90
1025
 91
0
280
0
281
0
  0
CLASS
  1
RASTERVARIABLES
  2
AcDbRasterVariables
  3
ISM
 90
0
 91
0
280
0
281
0
  0
CLASS
  1
LAYOUT
  2
AcDbLayout
  3
ObjectDBX Classes
 90
0
 91
0
280
0
281
0
  0
CLASS
  1
ACDBPLACEHOLDER
  2
AcDbPlaceHolder
  3
ObjectDBX Classes
 90
0
 91
0
280
0
281
0
  0
ENDSEC
  0
SECTION
  2
TABLES
  0
TABLE
  2
VPORT
  5
8
330
0
100
AcDbSymbolTable
 70
1
  0
VPORT
  5
23
330
8
100
AcDbSymbolTableRecord
100
AcDbViewportTableRecord
  2
*Active
 70
0
 10
0.0
 20
0.0
 11
1.0
 21
1.0
 12
0.0
 22
0.0
 13
0.0
 23
0.0
 14
0.5
 24
0.5
 15
0.5
 25
0.5
 16
0.0
 26
0.0
 36
1.0
 17
0.0
 27
0.0
 37
0.0
 40
1000.0
 41
1.34
 42
50.0
 43
0.0
 44
0.0
 50
0.0
 51
0.0
 71
0
 72
1000
 73
1
 74
3
 75
0
 76
0
 77
0
 78
0
281
0
 65
0
146
0.0
  0
ENDTAB
  0
TABLE
  2
LTYPE
  5
2
330
0
100
AcDbSymbolTable
 70
3
  0
LTYPE
  5
24
330
2
100
AcDbSymbolTableRecord
100
AcDbLinetypeTableRecord
  2
ByBlock
 70
0
  3

 72
65
 73
0
 40
0.0
  0
LTYPE
  5
25
330
2
100
AcDbSymbolTableRecord
100
AcDbLinetypeTableRecord
  2
ByLayer
 70
0
  3

 72
65
 73
0
 40
0.0
  0
LTYPE
  5
26
330
2
100
AcDbSymbolTableRecord
100
AcDbLinetypeTableRecord
  2
Continuous
 70
0
  3

 72
65
 73
0
 40
0.0
  0
ENDTAB
  0
TABLE
  2
LAYER
  5
1
330
0
100
AcDbSymbolTable
 70
4
  0
LAYER
  5
27
330
1
100
AcDbSymbolTableRecord
100
AcDbLayerTableRecord
  2
0
 70
0
 62
7
  6
Continuous
370
-3
390
13
347
21
  0
LAYER
  5
28
330
1
100
AcDbSymbolTableRecord
100
AcDbLayerTableRecord
  2
Defpoints
 70
0
 62
7
  6
Continuous
290
0
370
-3
390
13
347
21
  0
LAYER
  5
2F
330
1
100
AcDbSymbolTableRecord
100
AcDbLayerTableRecord
  2
main floor interior line
 70
0
 62
6
  6
CONTINUOUS
370
-3
390
13
347
21
  0
LAYER
  5
3C
330
1
100
AcDbSymbolTableRecord
100
AcDbLayerTableRecord
  2
main floor exterior line
 70
0
 62
2
  6
CONTINUOUS
370
-3
390
13
347
21
  0
ENDTAB
  0
TABLE
  2
STYLE
  5
5
330
0
100
AcDbSymbolTable
 70
1
  0
STYLE
  5
29
330
5
100
AcDbSymbolTableRecord
100
AcDbTextStyleTableRecord
  2
Standard
 70
0
 40
0.0
 41
1.0
 50
0.0
 71
0
 42
2.5
  3
txt
  4

  0
ENDTAB
  0
TABLE
  2
VIEW
  5
7
330
0
100
AcDbSymbolTable
 70
0
  0
ENDTAB
  0
TABLE
  2
UCS
  5
6
330
0
100
AcDbSymbolTable
 70
0
  0
ENDTAB
  0
TABLE
  2
APPID
  5
3
330
0
100
AcDbSymbolTable
 70
3
  0
APPID
  5
2A
330
3
100
AcDbSymbolTableRecord
100
AcDbRegAppTableRecord
  2
ACAD
 70
0
  0
APPID
  5
98
330
3
100
AcDbSymbolTableRecord
100
AcDbRegAppTableRecord
  2
HATCHBACKGROUNDCOLOR
 70
0
  0
APPID
  5
99
330
3
100
AcDbSymbolTableRecord
100
AcDbRegAppTableRecord
  2
EZDXF
 70
0
  0
ENDTAB
  0
TABLE
  2
DIMSTYLE
  5
4
330
0
100
AcDbSymbolTable
 70
1
100
AcDbDimStyleTable
  0
DIMSTYLE
105
2B
330
4
100
AcDbSymbolTableRecord
100
AcDbDimStyleTableRecord
  2
Standard
 70
0
 40
1.0
 41
2.5
 42
0.625
 43
3.75
 44
1.25
 45
0.0
 46
0.0
 47
0.0
 48
0.0
 49
2.5
140
2.5
141
2.5
142
0.0
143
0.03937007874
144
1.0
145
0.0
146
1.0
147
0.625
148
0.0
 69
0
 70
0
 71
0
 72
0
 73
0
 74
0
 75
0
 76
0
 77
1
 78
8
 79
3
170
0
171
3
172
1
173
0
174
0
175
0
176
0
177
0
178
0
179
2
271
2
272
2
273
2
274
3
275
0
276
0
277
2
278
44
279
0
280
0
281
0
282
0
283
0
284
8
285
0
286
0
288
0
289
3
290
0
371
-2
372
-2
  0
ENDTAB
  0
TABLE
  2
BLOCK_RECORD
  5
9
330
0
100
AcDbSymbolTable
 70
2
  0
BLOCK_RECORD
  5
17
330
9
100
AcDbSymbolTableRecord
100
AcDbBlockTableRecord
  2
*Model_Space
340
1A
 70
0
280
1
281
0
  0
BLOCK_RECORD
  5
1B
330
9
100
AcDbSymbolTableRecord
100
AcDbBlockTableRecord
  2
*Paper_Space
340
1E
 70
0
280
1
281
0
  0
ENDTAB
  0
ENDSEC
  0
SECTION
  2
BLOCKS
  0
BLOCK
  5
18
330
17
100
AcDbEntity
  8
0
100
AcDbBlockBegin
  2
*Model_Space
 70
0
 10
0.0
 20
0.0
 30
0.0
  3
*Model_Space
  1

  0
ENDBLK
  5
19
330
17
100
AcDbEntity
  8
0
100
AcDbBlockEnd
  0
BLOCK
  5
1C
330
1B
100
AcDbEntity
  8
0
100
AcDbBlockBegin
  2
*Paper_Space
 70
0
 10
0.0
 20
0.0
 30
0.0
  3
*Paper_Space
  1

  0
ENDBLK
  5
1D
330
1B
100
AcDbEntity
  8
0
100
AcDbBlockEnd
  0
ENDSEC
  0
SECTION
  2
ENTITIES
  0
LWPOLYLINE
  5
30
330
17
100
AcDbEntity
  8
main floor interior line
100
AcDbPolyline
 90
52
 70
0
 10
0.0
 20
0.0
 10
152.521416
 20
0.0
 10
0.0
 20
0.0
 10
152.521416
 20
0.0
 10
0.0
 20
0.0
 10
152.521416
 20
0.0
 10
0.0
 20
0.0
 10
152.521416
 20
0.0
 10
0.0
 20
0.0
 10
152.521416
 20
0.0
 10
0.0
 20
0.0
 10
152.521416
 20
0.0
 10
0.0
 20
0.0
 10
152.521416
 20
0.0
 10
0.0
 20
0.0
 10
152.521416
 20
0.0
 10
0.0
 20
0.0
 10
152.521416
 20
0.0
 10
0.0
 20
0.0
 10
152.521416
 20
0.0
 10
0.0
 20
0.0
 10
152.521416
 20
0.0
 10
0.0
 20
0.0
 10
152.521416
 20
0.0
 10
0.0
 20
0.0
 10
152.521416
 20
0.0
 10
0.0
 20
0.0
 10
152.521416
 20
0.0
 10
0.0
 20
0.0
 10
152.521416
 20
0.0
 10
0.0
 20
0.0
 10
152.521416
 20
0.0
 10
0.0
 20
0.0
 10
152.521416
 20
0.0
 10
0.0
 20
0.0
 10
152.521416
 20
0.0
 10
0.0
 20
0.0
 10
152.521416
 20
0.0
 10
0.0
 20
0.0
 10
152.521416
 20
0.0
 10
0.0
 20
0.0
 10
152.521416
 20
0.0
 10
0.0
 20
0.0
 10
152.521416
 20
0.0
 10
0.0
 20
0.0
 10
152.521416
 20
0.0
 10
0.0
 20
0.0
 10
152.521416
 20
0.0
 10
0.0
 20
0.0
 10
152.521416
 20
0.0
 10
0.0
 20
0.0
 10
152.521416
 20
0.0
  0
LWPOLYLINE
  5
31
330
17
100
AcDbEntity
  8
main floor interior line
100
AcDbPolyline
 90
52
 70
0
 10
152.521416
 20
98.69032799999998
 10
0.0
 20
98.69032799999998
 10
152.521416
 20
98.69032799999998
 10
0.0
 20
98.69032799999998
 10
152.521416
 20
98.69032799999998
 10
0.0
 20
98.69032799999998
 10
152.521416
 20
98.69032799999998
 10
0.0
 20
98.69032799999998
 10
152.521416
 20
98.69032799999998
 10
0.0
 20
98.69032799999998
 10
152.521416
 20
98.69032799999998
 10
0.0
 20
98.69032799999998
 10
152.521416
 20
98.69032799999998
 10
0.0
 20
98.69032799999998
 10
152.521416
 20
98.69032799999998
 10
0.0
 20
98.69032799999998
 10
152.521416
 20
98.69032799999998
 10
0.0
 20
98.69032799999998
 10
152.521416
 20
98.69032799999998
 10
0.0
 20
98.69032799999998
 10
152.521416
 20
98.69032799999998
 10
0.0
 20
98.69032799999998
 10
152.521416
 20
98.69032799999998
 10
0.0
 20
98.69032799999998
 10
152.521416
 20
98.69032799999998
 10
0.0
 20
98.69032799999998
 10
152.521416
 20
98.69032799999998
 10
0.0
 20
98.69032799999998
 10
152.521416
 20
98.69032799999998
 10
0.0
 20
98.69032799999998
 10
152.521416
 20
98.69032799999998
 10
0.0
 20
98.69032799999998
 10
152.521416
 20
98.69032799999998
 10
0.0
 20
98.69032799999998
 10
152.521416
 20
98.69032799999998
 10
0.0
 20
98.69032799999998
 10
152.521416
 20
98.69032799999998
 10
0.0
 20
98.69032799999998
 10
152.521416
 20
98.69032799999998
 10
0.0
 20
98.69032799999998
 10
152.521416
 20
98.69032799999998
 10
0.0
 20
98.69032799999998
 10
152.521416
 20
98.69032799999998
 10
0.0
 20
98.69032799999998
 10
152.521416
 20
98.69032799999998
 10
0.0
 20
98.69032799999998
 10
152.521416
 20
98.69032799999998
 10
0.0
 20
98.69032799999998
 10
152.521416
 20
98.69032799999998
 10
0.0
 20
98.69032799999998
 10
152.521416
 20
98.69032799999998
 10
0.0
 20
98.69032799999998
  0
LWPOLYLINE
  5
32
330
17
100
AcDbEntity
  8
main floor interior line
100
AcDbPolyline
 90
52
 70
0
 10
0.0
 20
98.69032799999998
 10
152.521416
 20
98.69032799999998
 10
0.0
 20
98.69032799999998
 10
152.521416
 20
98.69032799999998
 10
0.0
 20
98.69032799999998
 10
152.521416
 20
98.69032799999998
 10
0.0
 20
98.69032799999998
 10
152.521416
 20
98.69032799999998
 10
0.0
 20
98.69032799999998
 10
152.521416
 20
98.69032799999998
 10
0.0
 20
98.69032799999998
 10
152.521416
 20
98.69032799999998
 10
0.0
 20
98.69032799999998
 10
152.521416
 20
98.69032799999998
 10
0.0
 20
98.69032799999998
 10
152.521416
 20
98.69032799999998
 10
0.0
 20
98.69032799999998
 10
152.521416
 20
98.69032799999998
 10
0.0
 20
98.69032799999998
 10
152.521416
 20
98.69032799999998
 10
0.0
 20
98.69032799999998
 10
152.521416
 20
98.69032799999998
 10
0.0
 20
98.69032799999998
 10
152.521416
 20
98.69032799999998
 10
0.0
 20
98.69032799999998
 10
152.521416
 20
98.69032799999998
 10
0.0
 20
98.69032799999998
 10
152.521416
 20
98.69032799999998
 10
0.0
 20
98.69032799999998
 10
152.521416
 20
98.69032799999998
 10
0.0
 20
98.69032799999998
 10
152.521416
 20
98.69032799999998
 10
0.0
 20
98.69032799999998
 10
152.521416
 20
98.69032799999998
 10
0.0
 20
98.69032799999998
 10
152.521416
 20
98.69032799999998
 10
0.0
 20
98.69032799999998
 10
152.521416
 20
98.69032799999998
 10
0.0
 20
98.69032799999998
 10
152.521416
 20
98.69032799999998
 10
0.0
 20
98.69032799999998
 10
152.521416
 20
98.69032799999998
 10
0.0
 20
98.69032799999998
 10
152.521416
 20
98.69032799999998
 10
0.0
 20
98.69032799999998
 10
152.521416
 20
98.69032799999998
 10
0.0
 20
98.69032799999998
 10
152.521416
 20
98.69032799999998
 10
0.0
 20
98.69032799999998
 10
152.521416
 20
98.69032799999998
 10
0.0
 20
98.69032799999998
 10
152.521416
 20
98.69032799999998
  0
LWPOLYLINE
  5
33
330
17
100
AcDbEntity
  8
main floor interior line
100
AcDbPolyline
 90
52
 70
0
 10
152.521416
 20
0.0
 10
0.0
 20
0.0
 10
152.521416
 20
0.0
 10
0.0
 20
0.0
 10
152.521416
 20
0.0
 10
0.0
 20
0.0
 10
152.521416
 20
0.0
 10
0.0
 20
0.0
 10
152.521416
 20
0.0
 10
0.0
 20
0.0
 10
152.521416
 20
0.0
 10
0.0
 20
0.0
 10
152.521416
 20
0.0
 10
0.0
 20
0.0
 10
152.521416
 20
0.0
 10
0.0
 20
0.0
 10
152.521416
 20
0.0
 10
0.0
 20
0.0
 10
152.521416
 20
0.0
 10
0.0
 20
0.0
 10
152.521416
 20
0.0
 10
0.0
 20
0.0
 10
152.521416
 20
0.0
 10
0.0
 20
0.0
 10
152.521416
 20
0.0
 10
0.0
 20
0.0
 10
152.521416
 20
0.0
 10
0.0
 20
0.0
 10
152.521416
 20
0.0
 10
0.0
 20
0.0
 10
152.521416
 20
0.0
 10
0.0
 20
0.0
 10
152.521416
 20
0.0
 10
0.0
 20
0.0
 10
152.521416
 20
0.0
 10
0.0
 20
0.0
 10
152.521416
 20
0.0
 10
0.0
 20
0.0
 10
152.521416
 20
0.0
 10
0.0
 20
0.0
 10
152.521416
 20
0.0
 10
0.0
 20
0.0
 10
152.521416
 20
0.0
 10
0.0
 20
0.0
 10
152.521416
 20
0.0
 10
0.0
 20
0.0
 10
152.521416
 20
0.0
 10
0.0
 20
0.0
 10
152.521416
 20
0.0
 10
0.0
 20
0.0
 10
152.521416
 20
0.0
 10
0.0
 20
0.0
  0
LWPOLYLINE
  5
34
330
17
100
AcDbEntity
  8
main floor interior line
100
AcDbPolyline
 90
52
 70
0
 10
0.0
 20
98.69032799999998
 10
152.521416
 20
98.69032799999998
 10
0.0
 20
98.69032799999998
 10
152.521416
 20
98.69032799999998
 10
0.0
 20
98.69032799999998
 10
152.521416
 20
98.69032799999998
 10
0.0
 20
98.69032799999998
 10
152.521416
 20
98.69032799999998
 10
0.0
 20
98.69032799999998
 10
152.521416
 20
98.69032799999998
 10
0.0
 20
98.69032799999998
 10
152.521416
 20
98.69032799999998
 10
0.0
 20
98.69032799999998
 10
152.521416
 20
98.69032799999998
 10
0.0
 20
98.69032799999998
 10
152.521416
 20
98.69032799999998
 10
0.0
 20
98.69032799999998
 10
152.521416
 20
98.69032799999998
 10
0.0
 20
98.69032799999998
 10
152.521416
 20
98.69032799999998
 10
0.0
 20
98.69032799999998
 10
152.521416
 20
98.69032799999998
 10
0.0
 20
98.69032799999998
 10
152.521416
 20
98.69032799999998
 10
0.0
 20
98.69032799999998
 10
152.521416
 20
98.69032799999998
 10
0.0
 20
98.69032799999998
 10
152.521416
 20
98.69032799999998
 10
0.0
 20
98.69032799999998
 10
152.521416
 20
98.69032799999998
 10
0.0
 20
98.69032799999998
 10
152.521416
 20
98.69032799999998
 10
0.0
 20
98.69032799999998
 10
152.521416
 20
98.69032799999998
 10
0.0
 20
98.69032799999998
 10
152.521416
 20
98.69032799999998
 10
0.0
 20
98.69032799999998
 10
152.521416
 20
98.69032799999998
 10
0.0
 20
98.69032799999998
 10
152.521416
 20
98.69032799999998
 10
0.0
 20
98.69032799999998
 10
152.521416
 20
98.69032799999998
 10
0.0
 20
98.69032799999998
 10
152.521416
 20
98.69032799999998
 10
0.0
 20
98.69032799999998
 10
152.521416
 20
98.69032799999998
 10
0.0
 20
98.69032799999998
 10
152.521416
 20
98.69032799999998
 10
0.0
 20
98.69032799999998
 10
152.521416
 20
98.69032799999998
 10
0.0
 20
98.69032799999998
 10
152.521416
 20
98.69032799999998
  0
LWPOLYLINE
  5
35
330
17
100
AcDbEntity
  8
main floor interior line
100
AcDbPolyline
 90
52
 70
0
 10
152.521416
 20
0.0
 10
0.0
 20
0.0
 10
152.521416
 20
0.0
 10
0.0
 20
0.0
 10
152.521416
 20
0.0
 10
0.0
 20
0.0
 10
152.521416
 20
0.0
 10
0.0
 20
0.0
 10
152.521416
 20
0.0
 10
0.0
 20
0.0
 10
152.521416
 20
0.0
 10
0.0
 20
0.0
 10
152.521416
 20
0.0
 10
0.0
 20
0.0
 10
152.521416
 20
0.0
 10
0.0
 20
0.0
 10
152.521416
 20
0.0
 10
0.0
 20
0.0
 10
152.521416
 20
0.0
 10
0.0
 20
0.0
 10
152.521416
 20
0.0
 10
0.0
 20
0.0
 10
152.521416
 20
0.0
 10
0.0
 20
0.0
 10
152.521416
 20
0.0
 10
0.0
 20
0.0
 10
152.521416
 20
0.0
 10
0.0
 20
0.0
 10
152.521416
 20
0.0
 10
0.0
 20
0.0
 10
152.521416
 20
0.0
 10
0.0
 20
0.0
 10
152.521416
 20
0.0
 10
0.0
 20
0.0
 10
152.521416
 20
0.0
 10
0.0
 20
0.0
 10
152.521416
 20
0.0
 10
0.0
 20
0.0
 10
152.521416
 20
0.0
 10
0.0
 20
0.0
 10
152.521416
 20
0.0
 10
0.0
 20
0.0
 10
152.521416
 20
0.0
 10
0.0
 20
0.0
 10
152.521416
 20
0.0
 10
0.0
 20
0.0
 10
152.521416
 20
0.0
 10
0.0
 20
0.0
 10
152.521416
 20
0.0
 10
0.0
 20
0.0
 10
152.521416
 20
0.0
 10
0.0
 20
0.0
  0
LWPOLYLINE
  5
36
330
17
100
AcDbEntity
  8
main floor interior line
100
AcDbPolyline
 90
37
 70
0
 10
0.0
 20
98.69032799999998
 10
152.521416
 20
98.69032799999998
 10
0.0
 20
98.69032799999998
 10
152.521416
 20
98.69032799999998
 10
0.0
 20
98.69032799999998
 10
152.521416
 20
98.69032799999998
 10
0.0
 20
98.69032799999998
 10
152.521416
 20
98.69032799999998
 10
0.0
 20
98.69032799999998
 10
152.521416
 20
98.69032799999998
 10
0.0
 20
98.69032799999998
 10
152.521416
 20
98.69032799999998
 10
0.0
 20
98.69032799999998
 10
152.521416
 20
98.69032799999998
 10
0.0
 20
98.69032799999998
 10
152.521416
 20
98.69032799999998
 10
0.0
 20
98.69032799999998
 10
152.521416
 20
98.69032799999998
 10
0.0
 20
98.69032799999998
 10
152.521416
 20
98.69032799999998
 10
0.0
 20
98.69032799999998
 10
152.521416
 20
98.69032799999998
 10
0.0
 20
98.69032799999998
 10
152.521416
 20
98.69032799999998
 10
0.0
 20
98.69032799999998
 10
152.521416
 20
98.69032799999998
 10
0.0
 20
98.69032799999998
 10
152.521416
 20
98.69032799999998
 10
0.0
 20
98.69032799999998
 10
152.521416
 20
98.69032799999998
 10
0.0
 20
98.69032799999998
 10
152.521416
 20
98.69032799999998
 10
0.0
 20
98.69032799999998
 10
152.521416
 20
98.69032799999998
 10
0.0
 20
98.69032799999998
 10
152.521416
 20
98.69032799999998
 10
0.0
 20
98.69032799999998
  0
LWPOLYLINE
  5
37
330
17
100
AcDbEntity
  8
main floor interior line
100
AcDbPolyline
 90
16
 70
0
 10
4.485923999999999
 20
96.44736599999999
 10
150.278454
 20
96.44736599999999
 10
4.485923999999999
 20
96.44736599999999
 10
150.278454
 20
96.44736599999999
 10
4.485923999999999
 20
96.44736599999999
 10
150.278454
 20
96.44736599999999
 10
4.485923999999999
 20
96.44736599999999
 10
150.278454
 20
96.44736599999999
 10
4.485923999999999
 20
96.44736599999999
 10
150.278454
 20
96.44736599999999
 10
4.485923999999999
 20
96.44736599999999
 10
150.278454
 20
96.44736599999999
 10
4.485923999999999
 20
96.44736599999999
 10
150.278454
 20
96.44736599999999
 10
4.485923999999999
 20
96.44736599999999
 10
150.278454
 20
96.44736599999999
  0
LWPOLYLINE
  5
38
330
17
100
AcDbEntity
  8
main floor interior line
100
AcDbPolyline
 90
37
 70
0
 10
152.521416
 20
0.0
 10
0.0
 20
0.0
 10
152.521416
 20
0.0
 10
0.0
 20
0.0
 10
152.521416
 20
0.0
 10
0.0
 20
0.0
 10
152.521416
 20
0.0
 10
0.0
 20
0.0
 10
152.521416
 20
0.0
 10
0.0
 20
0.0
 10
152.521416
 20
0.0
 10
0.0
 20
0.0
 10
152.521416
 20
0.0
 10
0.0
 20
0.0
 10
152.521416
 20
0.0
 10
0.0
 20
0.0
 10
152.521416
 20
0.0
 10
0.0
 20
0.0
 10
152.521416
 20
0.0
 10
0.0
 20
0.0
 10
152.521416
 20
0.0
 10
0.0
 20
0.0
 10
152.521416
 20
0.0
 10
0.0
 20
0.0
 10
152.521416
 20
0.0
 10
0.0
 20
0.0
 10
152.521416
 20
0.0
 10
0.0
 20
0.0
 10
152.521416
 20
0.0
 10
0.0
 20
0.0
 10
152.521416
 20
0.0
 10
0.0
 20
0.0
 10
152.521416
 20
0.0
 10
0.0
 20
0.0
 10
152.521416
 20
0.0
 10
0.0
 20
0.0
 10
152.521416
 20
0.0
  0
LWPOLYLINE
  5
39
330
17
100
AcDbEntity
  8
main floor interior line
100
AcDbPolyline
 90
2
 70
0
 10
150.278454
 20
2.242961999999999
 10
4.485923999999999
 20
2.242961999999999
  0
LWPOLYLINE
  5
3A
330
17
100
AcDbEntity
  8
main floor interior line
100
AcDbPolyline
 90
2
 70
0
 10
0.0
 20
0.0
 10
0.0
 20
98.69032799999998
  0
LWPOLYLINE
  5
3B
330
17
100
AcDbEntity
  8
main floor interior line
100
AcDbPolyline
 90
14
 70
0
 10
4.485923999999999
 20
96.44736599999999
 10
150.278454
 20
96.44736599999999
 10
4.485923999999999
 20
96.44736599999999
 10
150.278454
 20
96.44736599999999
 10
4.485923999999999
 20
96.44736599999999
 10
150.278454
 20
96.44736599999999
 10
4.485923999999999
 20
96.44736599999999
 10
150.278454
 20
96.44736599999999
 10
4.485923999999999
 20
96.44736599999999
 10
150.278454
 20
96.44736599999999
 10
4.485923999999999
 20
96.44736599999999
 10
150.278454
 20
96.44736599999999
 10
4.485923999999999
 20
96.44736599999999
 10
150.278454
 20
96.44736599999999
  0
LWPOLYLINE
  5
3D
330
17
100
AcDbEntity
  8
main floor exterior line
100
AcDbPolyline
 90
52
 70
0
 10
150.278454
 20
17.943696
 10
53.83108799999999
 20
17.943696
 10
150.278454
 20
17.943696
 10
53.83108799999999
 20
17.943696
 10
150.278454
 20
17.943696
 10
53.83108799999999
 20
17.943696
 10
150.278454
 20
17.943696
 10
53.83108799999999
 20
17.943696
 10
150.278454
 20
17.943696
 10
53.83108799999999
 20
17.943696
 10
150.278454
 20
17.943696
 10
53.83108799999999
 20
17.943696
 10
150.278454
 20
17.943696
 10
53.83108799999999
 20
17.943696
 10
150.278454
 20
17.943696
 10
53.83108799999999
 20
17.943696
 10
150.278454
 20
17.943696
 10
53.83108799999999
 20
17.943696
 10
150.278454
 20
17.943696
 10
53.83108799999999
 20
17.943696
 10
150.278454
 20
17.943696
 10
53.83108799999999
 20
17.943696
 10
150.278454
 20
17.943696
 10
53.83108799999999
 20
17.943696
 10
150.278454
 20
17.943696
 10
53.83108799999999
 20
17.943696
 10
150.278454
 20
17.943696
 10
53.83108799999999
 20
17.943696
 10
150.278454
 20
17.943696
 10
53.83108799999999
 20
17.943696
 10
150.278454
 20
17.943696
 10
53.83108799999999
 20
17.943696
 10
150.278454
 20
17.943696
 10
53.83108799999999
 20
17.943696
 10
150.278454
 20
17.943696
 10
53.83108799999999
 20
17.943696
 10
150.278454
 20
17.943696
 10
53.83108799999999
 20
17.943696
 10
150.278454
 20
17.943696
 10
53.83108799999999
 20
17.943696
 10
150.278454
 20
17.943696
 10
53.83108799999999
 20
17.943696
 10
150.278454
 20
17.943696
 10
53.83108799999999
 20
17.943696
 10
150.278454
 20
17.943696
 10
53.83108799999999
 20
17.943696
 10
150.278454
 20
17.943696
 10
53.83108799999999
 20
17.943696
 10
150.278454
 20
17.943696
 10
4.485923999999999
 20
17.943696
 10
150.278454
 20
17.943696
 10
4.485923999999999
 20
17.943696
  0
LWPOLYLINE
  5
3E
330
17
100
AcDbEntity
  8
main floor interior line
100
AcDbPolyline
 90
52
 70
0
 10
4.485923999999999
 20
96.44736599999999
 10
150.278454
 20
96.44736599999999
 10
4.485923999999999
 20
96.44736599999999
 10
150.278454
 20
96.44736599999999
 10
4.485923999999999
 20
96.44736599999999
 10
150.278454
 20
96.44736599999999
 10
4.485923999999999
 20
96.44736599999999
 10
150.278454
 20
96.44736599999999
 10
4.485923999999999
 20
96.44736599999999
 10
150.278454
 20
96.44736599999999
 10
4.485923999999999
 20
96.44736599999999
 10
150.278454
 20
96.44736599999999
 10
4.485923999999999
 20
96.44736599999999
 10
150.278454
 20
96.44736599999999
 10
4.485923999999999
 20
96.44736599999999
 10
150.278454
 20
96.44736599999999
 10
4.485923999999999
 20
96.44736599999999
 10
150.278454
 20
96.44736599999999
 10
4.485923999999999
 20
96.44736599999999
 10
150.278454
 20
96.44736599999999
 10
4.485923999999999
 20
96.44736599999999
 10
150.278454
 20
96.44736599999999
 10
4.485923999999999
 20
96.44736599999999
 10
150.278454
 20
96.44736599999999
 10
4.485923999999999
 20
96.44736599999999
 10
150.278454
 20
96.44736599999999
 10
4.485923999999999
 20
96.44736599999999
 10
150.278454
 20
96.44736599999999
 10
4.485923999999999
 20
96.44736599999999
 10
150.278454
 20
96.44736599999999
 10
4.485923999999999
 20
96.44736599999999
 10
150.278454
 20
96.44736599999999
 10
4.485923999999999
 20
96.44736599999999
 10
150.278454
 20
96.44736599999999
 10
4.485923999999999
 20
96.44736599999999
 10
150.278454
 20
96.44736599999999
 10
4.485923999999999
 20
96.44736599999999
 10
150.278454
 20
96.44736599999999
 10
4.485923999999999
 20
96.44736599999999
 10
150.278454
 20
96.44736599999999
 10
4.485923999999999
 20
96.44736599999999
 10
150.278454
 20
96.44736599999999
 10
4.485923999999999
 20
96.44736599999999
 10
150.278454
 20
96.44736599999999
 10
4.485923999999999
 20
96.44736599999999
 10
150.278454
 20
96.44736599999999
 10
4.485923999999999
 20
96.44736599999999
 10
150.278454
 20
96.44736599999999
 10
4.485923999999999
 20
96.44736599999999
 10
150.278454
 20
96.44736599999999
 10
4.485923999999999
 20
96.44736599999999
 10
150.278454
 20
96.44736599999999
  0
LWPOLYLINE
  5
3F
330
17
100
AcDbEntity
  8
main floor interior line
100
AcDbPolyline
 90
7
 70
0
 10
4.485923999999999
 20
96.44736599999999
 10
150.278454
 20
96.44736599999999
 10
4.485923999999999
 20
96.44736599999999
 10
150.278454
 20
96.44736599999999
 10
4.485923999999999
 20
96.44736599999999
 10
150.278454
 20
96.44736599999999
 10
4.485923999999999
 20
96.44736599999999
  0
LWPOLYLINE
  5
40
330
17
100
AcDbEntity
  8
main floor interior line
100
AcDbPolyline
 90
46
 70
0
 10
0.0
 20
0.0
 10
0.0
 20
98.69032799999998
 10
0.0
 20
0.0
 10
0.0
 20
98.69032799999998
 10
0.0
 20
0.0
 10
0.0
 20
98.69032799999998
 10
0.0
 20
0.0
 10
0.0
 20
98.69032799999998
 10
0.0
 20
0.0
 10
0.0
 20
98.69032799999998
 10
0.0
 20
0.0
 10
0.0
 20
98.69032799999998
 10
0.0
 20
0.0
 10
0.0
 20
98.69032799999998
 10
0.0
 20
0.0
 10
0.0
 20
98.69032799999998
 10
0.0
 20
0.0
 10
0.0
 20
98.69032799999998
 10
0.0
 20
0.0
 10
0.0
 20
98.69032799999998
 10
0.0
 20
0.0
 10
0.0
 20
98.69032799999998
 10
0.0
 20
0.0
 10
0.0
 20
98.69032799999998
 10
0.0
 20
0.0
 10
0.0
 20
98.69032799999998
 10
0.0
 20
0.0
 10
0.0
 20
98.69032799999998
 10
0.0
 20
0.0
 10
0.0
 20
98.69032799999998
 10
0.0
 20
0.0
 10
0.0
 20
98.69032799999998
 10
0.0
 20
0.0
 10
0.0
 20
98.69032799999998
 10
0.0
 20
0.0
 10
0.0
 20
98.69032799999998
 10
0.0
 20
0.0
 10
0.0
 20
98.69032799999998
 10
0.0
 20
0.0
 10
0.0
 20
98.69032799999998
 10
0.0
 20
0.0
 10
0.0
 20
98.69032799999998
 10
0.0
 20
0.0
 10
0.0
 20
98.69032799999998
 10
0.0
 20
0.0
 10
0.0
 20
98.69032799999998
  0
LWPOLYLINE
  5
41
330
17
100
AcDbEntity
  8
main floor exterior line
100
AcDbPolyline
 90
3
 70
0
 10
28.40469133104
 20
94.76514449999999
 10
139.431489768
 20
94.76514449999999
 10
38.21767998719999
 20
93.08292299999998
  0
LWPOLYLINE
  5
42
330
17
100
AcDbEntity
  8
main floor exterior line
100
AcDbPolyline
 90
2
 70
0
 10
47.7502684872
 20
90.55959075
 10
139.431489768
 20
90.55959075
  0
LWPOLYLINE
  5
43
330
17
100
AcDbEntity
  8
main floor exterior line
100
AcDbPolyline
 90
2
 70
0
 10
28.40469133104
 20
88.87736924999999
 10
68.35770615839998
 20
88.87736924999999
  0
LWPOLYLINE
  5
44
330
17
100
AcDbEntity
  8
main floor exterior line
100
AcDbPolyline
 90
42
 70
0
 10
49.04610239999999
 20
78.89245007999999
 10
103.41550128
 20
79.84944719999999
 10
48.20872992
 20
79.37094864
 10
102.1423960488
 20
77.93592647419999
 10
47.68028807279999
 20
77.93593145855999
 10
102.1423960488
 20
77.93593145855999
 10
47.68028807279999
 20
78.00600159144
 10
102.2123764632
 20
78.00600159144
 10
47.6802880728
 20
78.4966669742
 10
102.7031365488
 20
78.49667195856
 10
47.68028807279999
 20
78.49667195856
 10
102.983357268
 20
78.77703722419999
 10
47.6802880728
 20
78.77703722419999
 10
102.983357268
 20
78.77704220856
 10
47.68028807279999
 20
78.77704220856
 10
104.3853580488
 20
80.1788884742
 10
47.6802880728
 20
80.1788884742
 10
104.3853580488
 20
80.17889345856
 10
47.68028807279999
 20
80.17889345856
 10
105.4368586344
 20
81.58074470855999
 10
27.56358058103999
 20
81.58074470855999
 10
27.56358058103999
 20
34.19829208319999
 10
127.0252183536
 20
33.63755158319999
 10
47.68028807279999
 20
35.0392533024
 10
125.973717768
 20
35.0392533024
 10
47.6802880728
 20
35.0392533024
 10
125.973717768
 20
35.0392533024
 10
47.6802880728
 20
36.44125408319999
 10
124.5720160488
 20
36.44125408319999
 10
47.68028807279999
 20
36.44125408319999
 10
124.5720160488
 20
36.44125408319999
 10
47.68028807279999
 20
36.7214748024
 10
124.291496268
 20
36.7214748024
 10
47.6802880728
 20
36.7214748024
 10
123.801035244
 20
37.212234888
 10
47.68028807279999
 20
37.212234888
 10
123.730755768
 20
37.2822153024
 10
47.68028807279999
 20
37.2822153024
 10
123.730755768
 20
37.2822153024
 10
48.20872992
 20
35.82757968
 10
124.7086872
 20
36.30607824
 10
49.04610239999999
 20
35.37898728
  0
LWPOLYLINE
  5
45
330
17
100
AcDbEntity
  8
main floor exterior line
100
AcDbPolyline
 90
2
 70
0
 10
140.2727500488
 20
81.02000420856
 10
51.25467231599999
 20
81.02000420856
  0
LWPOLYLINE
  5
46
330
17
100
AcDbEntity
  8
main floor exterior line
100
AcDbPolyline
 90
2
 70
0
 10
104.4553384632
 20
45.6933228024
 10
138.0297880488
 20
78.77704220856
  0
LWPOLYLINE
  5
47
330
17
100
AcDbEntity
  8
main floor exterior line
100
AcDbPolyline
 90
2
 70
0
 10
138.0297880488
 20
45.7633032168
 10
104.4553384632
 20
78.77704220856
  0
LWPOLYLINE
  5
48
330
17
100
AcDbEntity
  8
main floor exterior line
100
AcDbPolyline
 90
2
 70
0
 10
51.1147114872
 20
34.19829208319999
 10
136.9080079872
 20
34.19829208319999
  0
LWPOLYLINE
  5
49
330
17
100
AcDbEntity
  8
main floor exterior line
100
AcDbPolyline
 90
3
 70
0
 10
82.280818008
 20
30.7486165272
 10
131.625982008
 20
30.7486165272
 10
82.280818008
 20
30.74861652719999
  0
LWPOLYLINE
  5
4A
330
17
100
AcDbEntity
  8
main floor exterior line
100
AcDbPolyline
 90
7
 70
0
 10
28.40469133104
 20
19.6259175
 10
139.4311907064
 20
19.6259175
 10
139.4311907064
 20
45.9035631072
 10
139.431489768
 20
80.17889345856
 10
140.2727500488
 20
43.45036080240001
 10
139.431489768
 20
80.17889345856
 10
139.431489768
 20
44.29162108319999
  0
LWPOLYLINE
  5
4B
330
17
100
AcDbEntity
  8
main floor exterior line
100
AcDbPolyline
 90
3
 70
0
 10
148.5962325
 20
35.0392533024
 10
146.914011
 20
80.17889345856
 10
146.914011
 20
44.29162108319999
  0
LWPOLYLINE
  5
4C
330
17
100
AcDbEntity
  8
main floor exterior line
100
AcDbPolyline
 90
8
 70
0
 10
139.431489768
 20
80.1788884742
 10
104.3853580488
 20
80.1788884742
 10
139.431489768
 20
80.17889345856
 10
104.3853580488
 20
80.17889345856
 10
104.3853580488
 20
45.6933228024
 10
104.3853580488
 20
80.17889345856
 10
104.3853580488
 20
45.6933228024
 10
104.3853580488
 20
80.1788884742
  0
LWPOLYLINE
  5
4D
330
17
100
AcDbEntity
  8
main floor exterior line
100
AcDbPolyline
 90
13
 70
0
 10
102.1423960488
 20
43.4503608024
 10
102.7031365488
 20
78.4966669742
 10
102.1423960488
 20
43.45036080240001
 10
102.7031365488
 20
78.49667195856
 10
102.7031365488
 20
44.0111013024
 10
102.2123764632
 20
78.00600159144
 10
102.2123764632
 20
43.5203412168
 10
101.0209150488
 20
77.37519095855998
 10
66.3949648776
 20
77.37519095855998
 10
31.76901470639999
 20
77.37519095855998
 10
31.20827420639999
 20
38.40369630240001
 10
77.189294268
 20
37.8429558024
 10
122.609274768
 20
37.8429558024
  0
LWPOLYLINE
  5
4E
330
17
100
AcDbEntity
  8
main floor exterior line
100
AcDbPolyline
 90
2
 70
0
 10
29.80654258104
 20
69.81219225
 10
67.09566620639998
 20
69.81219225
  0
LWPOLYLINE
  5
4F
330
17
100
AcDbEntity
  8
main floor exterior line
100
AcDbPolyline
 90
2
 70
0
 10
75.71432245679999
 20
63.63701880240001
 10
31.62905387759999
 20
63.63701880240001
  0
LWPOLYLINE
  5
50
330
17
100
AcDbEntity
  8
main floor exterior line
100
AcDbPolyline
 90
2
 70
0
 10
82.8986792736
 20
55.75166159519999
 10
30.64753370639999
 20
55.75166159519999
  0
LWPOLYLINE
  5
51
330
17
100
AcDbEntity
  8
main floor exterior line
100
AcDbPolyline
 90
3
 70
0
 10
30.64753370639999
 20
59.11610459519999
 10
79.81445699279999
 20
59.11610459519999
 10
31.62905387759999
 20
58.31013358319999
  0
LWPOLYLINE
  5
52
330
17
100
AcDbEntity
  8
main floor exterior line
100
AcDbPolyline
 90
17
 70
0
 10
27.00284008104
 20
81.02000420856
 10
27.00284008104
 20
34.19829208319999
 10
28.40469133104
 20
80.17889345856
 10
28.40469133104
 20
35.0392533024
 10
28.4046963154
 20
80.1788884742
 10
28.4046963154
 20
35.0392533024
 10
29.80654258104
 20
78.77704220856
 10
29.80654258104
 20
36.44125408319999
 10
29.8065475654
 20
78.77703722419999
 10
29.8065475654
 20
36.44125408319999
 10
30.0867932064
 20
78.49667195856
 10
30.0867932064
 20
36.7214748024
 10
30.0867932064
 20
78.4966669742
 10
30.57755329199999
 20
37.212234888
 10
30.57755329199999
 20
78.00600159144
 10
30.64753370639999
 20
37.2822153024
 10
30.6475337064
 20
77.93592647419999
  0
LWPOLYLINE
  5
53
330
17
100
AcDbEntity
  8
main floor exterior line
100
AcDbPolyline
 90
2
 70
0
 10
28.40801091479999
 20
87.19514774999999
 10
63.31104165839998
 20
87.19514774999999
  0
LWPOLYLINE
  5
54
330
17
100
AcDbEntity
  8
main floor exterior line
100
AcDbPolyline
 90
2
 70
0
 10
123.801035244
 20
42.5642412816
 10
88.96155509039998
 20
42.5642412816
  0
LWPOLYLINE
  5
55
330
17
100
AcDbEntity
  8
main floor exterior line
100
AcDbPolyline
 90
2
 70
0
 10
53.70518306639999
 20
48.5741831952
 10
88.47109406639998
 20
48.5741831952
  0
LWPOLYLINE
  5
56
330
17
100
AcDbEntity
  8
main floor interior line
100
AcDbPolyline
 90
52
 70
0
 10
0.0
 20
0.0
 10
0.0
 20
98.69032799999998
 10
0.0
 20
0.0
 10
0.0
 20
98.69032799999998
 10
0.0
 20
0.0
 10
0.0
 20
98.69032799999998
 10
0.0
 20
0.0
 10
0.0
 20
98.69032799999998
 10
0.0
 20
0.0
 10
0.0
 20
98.69032799999998
 10
0.0
 20
0.0
 10
0.0
 20
98.69032799999998
 10
0.0
 20
0.0
 10
0.0
 20
98.69032799999998
 10
0.0
 20
0.0
 10
0.0
 20
98.69032799999998
 10
0.0
 20
0.0
 10
0.0
 20
98.69032799999998
 10
0.0
 20
0.0
 10
0.0
 20
98.69032799999998
 10
0.0
 20
0.0
 10
0.0
 20
98.69032799999998
 10
0.0
 20
0.0
 10
0.0
 20
98.69032799999998
 10
0.0
 20
0.0
 10
0.0
 20
98.69032799999998
 10
0.0
 20
0.0
 10
0.0
 20
98.69032799999998
 10
0.0
 20
0.0
 10
0.0
 20
98.69032799999998
 10
0.0
 20
0.0
 10
0.0
 20
98.69032799999998
 10
0.0
 20
0.0
 10
0.0
 20
98.69032799999998
 10
0.0
 20
0.0
 10
0.0
 20
98.69032799999998
 10
0.0
 20
0.0
 10
0.0
 20
98.69032799999998
 10
0.0
 20
0.0
 10
0.0
 20
98.69032799999998
 10
0.0
 20
0.0
 10
0.0
 20
98.69032799999998
 10
0.0
 20
0.0
 10
0.0
 20
98.69032799999998
 10
0.0
 20
0.0
 10
0.0
 20
98.69032799999998
 10
0.0
 20
0.0
 10
0.0
 20
98.69032799999998
 10
0.0
 20
0.0
 10
0.0
 20
98.69032799999998
 10
0.0
 20
0.0
 10
0.0
 20
98.69032799999998
  0
LWPOLYLINE
  5
57
330
17
100
AcDbEntity
  8
main floor interior line
100
AcDbPolyline
 90
52
 70
0
 10
152.521416
 20
98.69032799999998
 10
152.521416
 20
0.0
 10
152.521416
 20
98.69032799999998
 10
152.521416
 20
0.0
 10
152.521416
 20
98.69032799999998
 10
152.521416
 20
0.0
 10
152.521416
 20
98.69032799999998
 10
152.521416
 20
0.0
 10
152.521416
 20
98.69032799999998
 10
152.521416
 20
0.0
 10
152.521416
 20
98.69032799999998
 10
152.521416
 20
0.0
 10
152.521416
 20
98.69032799999998
 10
152.521416
 20
0.0
 10
152.521416
 20
98.69032799999998
 10
152.521416
 20
0.0
 10
152.521416
 20
98.69032799999998
 10
152.521416
 20
0.0
 10
152.521416
 20
98.69032799999998
 10
152.521416
 20
0.0
 10
152.521416
 20
98.69032799999998
 10
152.521416
 20
0.0
 10
152.521416
 20
98.69032799999998
 10
152.521416
 20
0.0
 10
152.521416
 20
98.69032799999998
 10
152.521416
 20
0.0
 10
152.521416
 20
98.69032799999998
 10
152.521416
 20
0.0
 10
152.521416
 20
98.69032799999998
 10
152.521416
 20
0.0
 10
152.521416
 20
98.69032799999998
 10
152.521416
 20
0.0
 10
152.521416
 20
98.69032799999998
 10
152.521416
 20
0.0
 10
152.521416
 20
98.69032799999998
 10
152.521416
 20
0.0
 10
152.521416
 20
98.69032799999998
 10
152.521416
 20
0.0
 10
152.521416
 20
98.69032799999998
 10
152.521416
 20
0.0
 10
152.521416
 20
98.69032799999998
 10
152.521416
 20
0.0
 10
152.521416
 20
98.69032799999998
 10
152.521416
 20
0.0
 10
152.521416
 20
98.69032799999998
 10
152.521416
 20
0.0
 10
152.521416
 20
98.69032799999998
 10
152.521416
 20
0.0
 10
152.521416
 20
98.69032799999998
 10
152.521416
 20
0.0
 10
152.521416
 20
98.69032799999998
 10
152.521416
 20
0.0
  0
LWPOLYLINE
  5
58
330
17
100
AcDbEntity
  8
main floor interior line
100
AcDbPolyline
 90
52
 70
0
 10
0.0
 20
0.0
 10
0.0
 20
98.69032799999998
 10
0.0
 20
0.0
 10
0.0
 20
98.69032799999998
 10
0.0
 20
0.0
 10
0.0
 20
98.69032799999998
 10
0.0
 20
0.0
 10
0.0
 20
98.69032799999998
 10
0.0
 20
0.0
 10
0.0
 20
98.69032799999998
 10
0.0
 20
0.0
 10
0.0
 20
98.69032799999998
 10
0.0
 20
0.0
 10
0.0
 20
98.69032799999998
 10
0.0
 20
0.0
 10
0.0
 20
98.69032799999998
 10
0.0
 20
0.0
 10
0.0
 20
98.69032799999998
 10
0.0
 20
0.0
 10
0.0
 20
98.69032799999998
 10
0.0
 20
0.0
 10
0.0
 20
98.69032799999998
 10
0.0
 20
0.0
 10
0.0
 20
98.69032799999998
 10
0.0
 20
0.0
 10
0.0
 20
98.69032799999998
 10
0.0
 20
0.0
 10
0.0
 20
98.69032799999998
 10
0.0
 20
0.0
 10
0.0
 20
98.69032799999998
 10
0.0
 20
0.0
 10
0.0
 20
98.69032799999998
 10
0.0
 20
0.0
 10
0.0
 20
98.69032799999998
 10
0.0
 20
0.0
 10
0.0
 20
98.69032799999998
 10
0.0
 20
0.0
 10
0.0
 20
98.69032799999998
 10
0.0
 20
0.0
 10
0.0
 20
98.69032799999998
 10
0.0
 20
0.0
 10
0.0
 20
98.69032799999998
 10
0.0
 20
0.0
 10
0.0
 20
98.69032799999998
 10
0.0
 20
0.0
 10
0.0
 20
98.69032799999998
 10
0.0
 20
0.0
 10
0.0
 20
98.69032799999998
 10
0.0
 20
0.0
 10
0.0
 20
98.69032799999998
 10
0.0
 20
0.0
 10
0.0
 20
98.69032799999998
  0
LWPOLYLINE
  5
59
330
17
100
AcDbEntity
  8
main floor interior line
100
AcDbPolyline
 90
42
 70
0
 10
0.0
 20
0.0
 10
0.0
 20
98.69032799999998
 10
0.0
 20
0.0
 10
0.0
 20
98.69032799999998
 10
0.0
 20
0.0
 10
0.0
 20
98.69032799999998
 10
0.0
 20
0.0
 10
0.0
 20
98.69032799999998
 10
0.0
 20
0.0
 10
0.0
 20
98.69032799999998
 10
0.0
 20
0.0
 10
0.0
 20
98.69032799999998
 10
0.0
 20
0.0
 10
0.0
 20
98.69032799999998
 10
0.0
 20
0.0
 10
0.0
 20
98.69032799999998
 10
0.0
 20
0.0
 10
0.0
 20
98.69032799999998
 10
0.0
 20
0.0
 10
0.0
 20
98.69032799999998
 10
0.0
 20
0.0
 10
0.0
 20
98.69032799999998
 10
0.0
 20
0.0
 10
0.0
 20
98.69032799999998
 10
0.0
 20
0.0
 10
0.0
 20
98.69032799999998
 10
0.0
 20
0.0
 10
0.0
 20
98.69032799999998
 10
0.0
 20
0.0
 10
0.0
 20
98.69032799999998
 10
0.0
 20
0.0
 10
0.0
 20
98.69032799999998
 10
0.0
 20
0.0
 10
0.0
 20
98.69032799999998
 10
0.0
 20
0.0
 10
0.0
 20
98.69032799999998
 10
0.0
 20
0.0
 10
0.0
 20
98.69032799999998
 10
0.0
 20
0.0
 10
0.0
 20
98.69032799999998
 10
0.0
 20
0.0
 10
0.0
 20
98.69032799999998
  0
LWPOLYLINE
  5
5A
330
17
100
AcDbEntity
  8
main floor interior line
100
AcDbPolyline
 90
11
 70
0
 10
4.485923999999999
 20
2.242961999999999
 10
4.485923999999999
 20
96.44736599999999
 10
4.485923999999999
 20
2.242961999999999
 10
4.485923999999999
 20
96.44736599999999
 10
4.485923999999999
 20
2.242961999999999
 10
4.485923999999999
 20
96.44736599999999
 10
4.485923999999999
 20
2.242961999999999
 10
4.485923999999999
 20
96.44736599999999
 10
4.485923999999999
 20
2.242961999999999
 10
4.485923999999999
 20
96.44736599999999
 10
4.485923999999999
 20
2.242961999999999
  0
LWPOLYLINE
  5
5B
330
17
100
AcDbEntity
  8
main floor interior line
100
AcDbPolyline
 90
52
 70
0
 10
152.521416
 20
98.69032799999998
 10
152.521416
 20
0.0
 10
152.521416
 20
98.69032799999998
 10
152.521416
 20
0.0
 10
152.521416
 20
98.69032799999998
 10
152.521416
 20
0.0
 10
152.521416
 20
98.69032799999998
 10
152.521416
 20
0.0
 10
152.521416
 20
98.69032799999998
 10
152.521416
 20
0.0
 10
152.521416
 20
98.69032799999998
 10
152.521416
 20
0.0
 10
152.521416
 20
98.69032799999998
 10
152.521416
 20
0.0
 10
152.521416
 20
98.69032799999998
 10
152.521416
 20
0.0
 10
152.521416
 20
98.69032799999998
 10
152.521416
 20
0.0
 10
152.521416
 20
98.69032799999998
 10
152.521416
 20
0.0
 10
152.521416
 20
98.69032799999998
 10
152.521416
 20
0.0
 10
152.521416
 20
98.69032799999998
 10
152.521416
 20
0.0
 10
152.521416
 20
98.69032799999998
 10
152.521416
 20
0.0
 10
152.521416
 20
98.69032799999998
 10
152.521416
 20
0.0
 10
152.521416
 20
98.69032799999998
 10
152.521416
 20
0.0
 10
152.521416
 20
98.69032799999998
 10
152.521416
 20
0.0
 10
152.521416
 20
98.69032799999998
 10
152.521416
 20
0.0
 10
152.521416
 20
98.69032799999998
 10
152.521416
 20
0.0
 10
152.521416
 20
98.69032799999998
 10
152.521416
 20
0.0
 10
152.521416
 20
98.69032799999998
 10
152.521416
 20
0.0
 10
152.521416
 20
98.69032799999998
 10
152.521416
 20
0.0
 10
152.521416
 20
98.69032799999998
 10
152.521416
 20
0.0
 10
152.521416
 20
98.69032799999998
 10
152.521416
 20
0.0
 10
152.521416
 20
98.69032799999998
 10
152.521416
 20
0.0
 10
152.521416
 20
98.69032799999998
 10
152.521416
 20
0.0
 10
152.521416
 20
98.69032799999998
 10
152.521416
 20
0.0
  0
LWPOLYLINE
  5
5C
330
17
100
AcDbEntity
  8
main floor interior line
100
AcDbPolyline
 90
52
 70
0
 10
152.521416
 20
98.69032799999998
 10
152.521416
 20
0.0
 10
152.521416
 20
98.69032799999998
 10
152.521416
 20
0.0
 10
152.521416
 20
98.69032799999998
 10
152.521416
 20
0.0
 10
152.521416
 20
98.69032799999998
 10
152.521416
 20
0.0
 10
152.521416
 20
98.69032799999998
 10
152.521416
 20
0.0
 10
152.521416
 20
98.69032799999998
 10
152.521416
 20
0.0
 10
152.521416
 20
98.69032799999998
 10
152.521416
 20
0.0
 10
152.521416
 20
98.69032799999998
 10
152.521416
 20
0.0
 10
152.521416
 20
98.69032799999998
 10
152.521416
 20
0.0
 10
152.521416
 20
98.69032799999998
 10
152.521416
 20
0.0
 10
152.521416
 20
98.69032799999998
 10
152.521416
 20
0.0
 10
152.521416
 20
98.69032799999998
 10
152.521416
 20
0.0
 10
152.521416
 20
98.69032799999998
 10
152.521416
 20
0.0
 10
152.521416
 20
98.69032799999998
 10
152.521416
 20
0.0
 10
152.521416
 20
98.69032799999998
 10
152.521416
 20
0.0
 10
152.521416
 20
98.69032799999998
 10
152.521416
 20
0.0
 10
152.521416
 20
98.69032799999998
 10
152.521416
 20
0.0
 10
152.521416
 20
98.69032799999998
 10
152.521416
 20
0.0
 10
152.521416
 20
98.69032799999998
 10
152.521416
 20
0.0
 10
152.521416
 20
98.69032799999998
 10
152.521416
 20
0.0
 10
152.521416
 20
98.69032799999998
 10
152.521416
 20
0.0
 10
152.521416
 20
98.69032799999998
 10
152.521416
 20
0.0
 10
152.521416
 20
98.69032799999998
 10
152.521416
 20
0.0
 10
152.521416
 20
98.69032799999998
 10
152.521416
 20
0.0
 10
152.521416
 20
98.69032799999998
 10
152.521416
 20
0.0
 10
152.521416
 20
98.69032799999998
 10
152.521416
 20
0.0
  0
LWPOLYLINE
  5
5D
330
17
100
AcDbEntity
  8
main floor exterior line
100
AcDbPolyline
 90
37
 70
0
 10
152.521416
 20
98.69032799999998
 10
152.521416
 20
0.0
 10
152.521416
 20
98.69032799999998
 10
152.521416
 20
0.0
 10
152.521416
 20
98.69032799999998
 10
152.521416
 20
0.0
 10
152.521416
 20
98.69032799999998
 10
152.521416
 20
0.0
 10
152.521416
 20
98.69032799999998
 10
152.521416
 20
0.0
 10
152.521416
 20
98.69032799999998
 10
152.521416
 20
0.0
 10
152.521416
 20
98.69032799999998
 10
152.521416
 20
0.0
 10
152.521416
 20
98.69032799999998
 10
152.521416
 20
0.0
 10
152.521416
 20
98.69032799999998
 10
152.521416
 20
0.0
 10
152.521416
 20
98.69032799999998
 10
152.521416
 20
0.0
 10
152.521416
 20
98.69032799999998
 10
152.521416
 20
0.0
 10
152.521416
 20
98.69032799999998
 10
152.521416
 20
0.0
 10
152.521416
 20
98.69032799999998
 10
152.521416
 20
0.0
 10
152.521416
 20
98.69032799999998
 10
152.521416
 20
0.0
 10
152.521416
 20
98.69032799999998
 10
152.521416
 20
0.0
 10
152.521416
 20
98.69032799999998
 10
152.521416
 20
0.0
 10
152.521416
 20
98.69032799999998
 10
152.521416
 20
0.0
 10
152.521416
 20
98.69032799999998
 10
152.521416
 20
0.0
 10
152.521416
 20
98.69032799999998
  0
LWPOLYLINE
  5
5E
330
17
100
AcDbEntity
  8
main floor exterior line
100
AcDbPolyline
 90
16
 70
0
 10
150.278454
 20
96.44736599999999
 10
150.278454
 20
17.943696
 10
53.83108799999999
 20
17.943696
 10
150.278454
 20
17.943696
 10
53.83108799999999
 20
17.943696
 10
150.278454
 20
17.943696
 10
53.83108799999999
 20
17.943696
 10
150.278454
 20
17.943696
 10
53.83108799999999
 20
17.943696
 10
150.278454
 20
17.943696
 10
53.83108799999999
 20
17.943696
 10
150.278454
 20
17.943696
 10
53.83108799999999
 20
17.943696
 10
150.278454
 20
17.943696
 10
53.83108799999999
 20
17.943696
 10
150.278454
 20
17.943696
  0
LWPOLYLINE
  5
5F
330
17
100
AcDbEntity
  8
main floor exterior line
100
AcDbPolyline
 90
52
 70
0
 10
150.278454
 20
17.943696
 10
150.278454
 20
96.44736599999999
 10
150.278454
 20
17.943696
 10
150.278454
 20
96.44736599999999
 10
150.278454
 20
17.943696
 10
150.278454
 20
96.44736599999999
 10
150.278454
 20
17.943696
 10
150.278454
 20
96.44736599999999
 10
150.278454
 20
17.943696
 10
150.278454
 20
96.44736599999999
 10
150.278454
 20
17.943696
 10
150.278454
 20
96.44736599999999
 10
150.278454
 20
17.943696
 10
150.278454
 20
96.44736599999999
 10
150.278454
 20
17.943696
 10
150.278454
 20
96.44736599999999
 10
150.278454
 20
17.943696
 10
150.278454
 20
96.44736599999999
 10
150.278454
 20
17.943696
 10
150.278454
 20
96.44736599999999
 10
150.278454
 20
17.943696
 10
150.278454
 20
96.44736599999999
 10
150.278454
 20
17.943696
 10
150.278454
 20
96.44736599999999
 10
150.278454
 20
17.943696
 10
150.278454
 20
96.44736599999999
 10
150.278454
 20
17.943696
 10
150.278454
 20
96.44736599999999
 10
150.278454
 20
17.943696
 10
150.278454
 20
96.44736599999999
 10
150.278454
 20
17.943696
 10
53.83108799999999
 20
17.943696
 10
150.278454
 20
17.943696
 10
53.83108799999999
 20
17.943696
 10
150.278454
 20
17.943696
 10
53.83108799999999
 20
17.943696
 10
150.278454
 20
17.943696
 10
53.83108799999999
 20
17.943696
 10
150.278454
 20
17.943696
 10
53.83108799999999
 20
17.943696
 10
150.278454
 20
17.943696
 10
53.83108799999999
 20
17.943696
 10
150.278454
 20
17.943696
 10
53.83108799999999
 20
17.943696
 10
150.278454
 20
17.943696
 10
53.83108799999999
 20
17.943696
 10
150.278454
 20
17.943696
 10
53.83108799999999
 20
17.943696
 10
150.278454
 20
17.943696
 10
53.83108799999999
 20
17.943696
 10
150.278454
 20
17.943696
 10
53.83108799999999
 20
17.943696
  0
LWPOLYLINE
  5
60
330
17
100
AcDbEntity
  8
main floor interior line
100
AcDbPolyline
 90
52
 70
0
 10
4.485923999999999
 20
2.242961999999999
 10
4.485923999999999
 20
96.44736599999999
 10
4.485923999999999
 20
2.242961999999999
 10
4.485923999999999
 20
96.44736599999999
 10
4.485923999999999
 20
2.242961999999999
 10
4.485923999999999
 20
96.44736599999999
 10
4.485923999999999
 20
2.242961999999999
 10
4.485923999999999
 20
96.44736599999999
 10
4.485923999999999
 20
2.242961999999999
 10
4.485923999999999
 20
96.44736599999999
 10
4.485923999999999
 20
2.242961999999999
 10
4.485923999999999
 20
96.44736599999999
 10
4.485923999999999
 20
2.242961999999999
 10
4.485923999999999
 20
96.44736599999999
 10
4.485923999999999
 20
2.242961999999999
 10
4.485923999999999
 20
96.44736599999999
 10
4.485923999999999
 20
2.242961999999999
 10
4.485923999999999
 20
96.44736599999999
 10
4.485923999999999
 20
2.242961999999999
 10
4.485923999999999
 20
96.44736599999999
 10
4.485923999999999
 20
2.242961999999999
 10
4.485923999999999
 20
96.44736599999999
 10
4.485923999999999
 20
2.242961999999999
 10
4.485923999999999
 20
96.44736599999999
 10
4.485923999999999
 20
2.242961999999999
 10
4.485923999999999
 20
96.44736599999999
 10
4.485923999999999
 20
2.242961999999999
 10
4.485923999999999
 20
96.44736599999999
 10
4.485923999999999
 20
2.242961999999999
 10
4.485923999999999
 20
96.44736599999999
 10
4.485923999999999
 20
2.242961999999999
 10
4.485923999999999
 20
96.44736599999999
 10
4.485923999999999
 20
2.242961999999999
 10
4.485923999999999
 20
96.44736599999999
 10
4.485923999999999
 20
2.242961999999999
 10
4.485923999999999
 20
96.44736599999999
 10
4.485923999999999
 20
2.242961999999999
 10
4.485923999999999
 20
96.44736599999999
 10
4.485923999999999
 20
2.242961999999999
 10
4.485923999999999
 20
96.44736599999999
 10
4.485923999999999
 20
2.242961999999999
 10
4.485923999999999
 20
96.44736599999999
 10
4.485923999999999
 20
2.242961999999999
 10
4.485923999999999
 20
96.44736599999999
 10
4.485923999999999
 20
2.242961999999999
 10
4.485923999999999
 20
96.44736599999999
 10
4.485923999999999
 20
2.242961999999999
 10
4.485923999999999
 20
96.44736599999999
 10
4.485923999999999
 20
2.242961999999999
 10
4.485923999999999
 20
96.44736599999999
 10
4.485923999999999
 20
2.242961999999999
 10
4.485923999999999
 20
96.44736599999999
  0
LWPOLYLINE
  5
61
330
17
100
AcDbEntity
  8
main floor exterior line
100
AcDbPolyline
 90
47
 70
0
 10
4.485923999999999
 20
2.242961999999999
 10
4.485923999999999
 20
96.44736599999999
 10
4.485923999999999
 20
2.242961999999999
 10
4.485923999999999
 20
96.44736599999999
 10
4.485923999999999
 20
2.242961999999999
 10
4.485923999999999
 20
96.44736599999999
 10
4.485923999999999
 20
2.242961999999999
 10
4.485923999999999
 20
96.44736599999999
 10
4.485923999999999
 20
2.242961999999999
 10
4.485923999999999
 20
96.44736599999999
 10
4.485923999999999
 20
2.242961999999999
 10
4.485923999999999
 20
96.44736599999999
 10
4.485923999999999
 20
2.242961999999999
 10
4.485923999999999
 20
96.44736599999999
 10
4.485923999999999
 20
2.242961999999999
 10
4.485923999999999
 20
96.44736599999999
 10
4.485923999999999
 20
2.242961999999999
 10
4.485923999999999
 20
96.44736599999999
 10
4.485923999999999
 20
2.242961999999999
 10
4.485923999999999
 20
96.44736599999999
 10
4.485923999999999
 20
2.242961999999999
 10
4.485923999999999
 20
96.44736599999999
 10
4.485923999999999
 20
2.242961999999999
 10
53.83108799999999
 20
2.242961999999999
 10
4.485923999999999
 20
2.242961999999999
 10
53.83108799999999
 20
2.242961999999999
 10
4.485923999999999
 20
2.242961999999999
 10
53.83108799999999
 20
2.242961999999999
 10
4.485923999999999
 20
2.242961999999999
 10
53.83108799999999
 20
2.242961999999999
 10
4.485923999999999
 20
2.242961999999999
 10
53.83108799999999
 20
2.242961999999999
 10
4.485923999999999
 20
2.242961999999999
 10
53.83108799999999
 20
2.242961999999999
 10
4.485923999999999
 20
2.242961999999999
 10
53.83108799999999
 20
2.242961999999999
 10
4.485923999999999
 20
2.242961999999999
 10
53.83108799999999
 20
2.242961999999999
 10
4.485923999999999
 20
2.242961999999999
 10
53.83108799999999
 20
2.242961999999999
 10
4.485923999999999
 20
2.242961999999999
 10
53.83108799999999
 20
2.242961999999999
 10
4.485923999999999
 20
2.242961999999999
 10
53.83108799999999
 20
2.242961999999999
 10
4.485923999999999
 20
2.242961999999999
 10
53.83108799999999
 20
2.242961999999999
 10
4.485923999999999
 20
2.242961999999999
  0
LWPOLYLINE
  5
62
330
17
100
AcDbEntity
  8
main floor exterior line
100
AcDbPolyline
 90
4
 70
0
 10
4.485923999999999
 20
17.943696
 10
4.485923999999999
 20
96.44736599999999
 10
4.485923999999999
 20
17.943696
 10
53.83108799999999
 20
17.943696
  0
LWPOLYLINE
  5
63
330
17
100
AcDbEntity
  8
main floor exterior line
100
AcDbPolyline
 90
3
 70
0
 10
47.7502684872
 20
22.9903605
 10
125.9734187064
 20
22.9903605
 10
50.27345120639999
 20
21.308139
  0
LWPOLYLINE
  5
64
330
17
100
AcDbEntity
  8
main floor exterior line
100
AcDbPolyline
 90
52
 70
0
 10
150.278454
 20
96.44736599999999
 10
150.278454
 20
17.943696
 10
150.278454
 20
96.44736599999999
 10
150.278454
 20
17.943696
 10
150.278454
 20
96.44736599999999
 10
150.278454
 20
17.943696
 10
150.278454
 20
96.44736599999999
 10
150.278454
 20
17.943696
 10
150.278454
 20
96.44736599999999
 10
150.278454
 20
17.943696
 10
150.278454
 20
96.44736599999999
 10
150.278454
 20
17.943696
 10
150.278454
 20
96.44736599999999
 10
150.278454
 20
17.943696
 10
150.278454
 20
96.44736599999999
 10
150.278454
 20
17.943696
 10
150.278454
 20
96.44736599999999
 10
150.278454
 20
17.943696
 10
150.278454
 20
96.44736599999999
 10
150.278454
 20
17.943696
 10
150.278454
 20
96.44736599999999
 10
150.278454
 20
17.943696
 10
150.278454
 20
96.44736599999999
 10
150.278454
 20
17.943696
 10
150.278454
 20
96.44736599999999
 10
150.278454
 20
17.943696
 10
150.278454
 20
96.44736599999999
 10
150.278454
 20
17.943696
 10
150.278454
 20
96.44736599999999
 10
150.278454
 20
17.943696
 10
150.278454
 20
96.44736599999999
 10
150.278454
 20
17.943696
 10
150.278454
 20
96.44736599999999
 10
150.278454
 20
17.943696
 10
150.278454
 20
96.44736599999999
 10
150.278454
 20
17.943696
 10
150.278454
 20
96.44736599999999
 10
150.278454
 20
17.943696
 10
150.278454
 20
96.44736599999999
 10
150.278454
 20
17.943696
 10
150.278454
 20
96.44736599999999
 10
150.278454
 20
17.943696
 10
150.278454
 20
96.44736599999999
 10
150.278454
 20
17.943696
 10
150.278454
 20
96.44736599999999
 10
150.278454
 20
17.943696
 10
150.278454
 20
96.44736599999999
 10
150.278454
 20
17.943696
 10
150.278454
 20
96.44736599999999
 10
150.278454
 20
17.943696
 10
150.278454
 20
96.44736599999999
 10
150.278454
 20
17.943696
  0
LWPOLYLINE
  5
65
330
17
100
AcDbEntity
  8
main floor exterior line
100
AcDbPolyline
 90
7
 70
0
 10
150.278454
 20
96.44736599999999
 10
150.278454
 20
17.943696
 10
150.278454
 20
96.44736599999999
 10
150.278454
 20
17.943696
 10
131.942115041
 20
17.9436336955
 10
113.6054271768
 20
17.943820609
 10
131.625982008
 20
18.18802932720001
  0
LWPOLYLINE
  5
66
330
17
100
AcDbEntity
  8
main floor exterior line
100
AcDbPolyline
 90
4
 70
0
 10
96.23114446319998
 20
24.5242474464
 10
113.6054271768
 20
24.2580826224
 10
131.942115041
 20
24.1540091856
 10
150.278578609
 20
24.1540091856
  0
LWPOLYLINE
  5
67
330
17
100
AcDbEntity
  8
main floor exterior line
100
AcDbPolyline
 90
4
 70
0
 10
113.2896181272
 20
21.3841006464
 10
63.9444541272
 20
21.3841006464
 10
113.2896181272
 20
21.3841006464
 10
131.625982008
 20
21.35628791760001
  0
LWPOLYLINE
  5
68
330
17
100
AcDbEntity
  8
main floor exterior line
100
AcDbPolyline
 90
3
 70
0
 10
131.625982008
 20
15.0478825272
 10
82.280818008
 20
15.0478825272
 10
131.625982008
 20
15.0478825272
  0
LWPOLYLINE
  5
69
330
17
100
AcDbEntity
  8
main floor exterior line
100
AcDbPolyline
 90
2
 70
0
 10
68.1298212192
 20
12.2029095264
 10
86.63425771919998
 20
12.2029095264
  0
LWPOLYLINE
  5
6A
330
17
100
AcDbEntity
  8
main floor exterior line
100
AcDbPolyline
 90
2
 70
0
 10
68.1298212192
 20
10.10588958720001
 10
86.63425771919998
 20
10.10588958720001
  0
LWPOLYLINE
  5
6B
330
17
100
AcDbEntity
  8
main floor exterior line
100
AcDbPolyline
 90
2
 70
0
 10
114.567508344
 20
24.4683229272
 10
131.625982008
 20
24.4683229272
  0
LWPOLYLINE
  5
6C
330
17
100
AcDbEntity
  8
main floor interior line
100
AcDbPolyline
 90
3
 70
0
 10
63.9444541272
 20
37.0848346464
 10
113.2896181272
 20
37.0848346464
 10
63.9444541272
 20
37.0848346464
  0
LWPOLYLINE
  5
6D
330
17
100
AcDbEntity
  8
main floor exterior line
100
AcDbPolyline
 90
52
 70
0
 10
53.83108799999999
 20
2.242961999999999
 10
4.485923999999999
 20
2.242961999999999
 10
53.83108799999999
 20
2.242961999999999
 10
4.485923999999999
 20
2.242961999999999
 10
53.83108799999999
 20
2.242961999999999
 10
4.485923999999999
 20
2.242961999999999
 10
53.83108799999999
 20
2.242961999999999
 10
4.485923999999999
 20
2.242961999999999
 10
53.83108799999999
 20
2.242961999999999
 10
4.485923999999999
 20
2.242961999999999
 10
53.83108799999999
 20
2.242961999999999
 10
4.485923999999999
 20
2.242961999999999
 10
53.83108799999999
 20
2.242961999999999
 10
4.485923999999999
 20
2.242961999999999
 10
53.83108799999999
 20
2.242961999999999
 10
4.485923999999999
 20
2.242961999999999
 10
53.83108799999999
 20
2.242961999999999
 10
4.485923999999999
 20
2.242961999999999
 10
53.83108799999999
 20
2.242961999999999
 10
4.485923999999999
 20
2.242961999999999
 10
53.83108799999999
 20
2.242961999999999
 10
4.485923999999999
 20
2.242961999999999
 10
53.83108799999999
 20
2.242961999999999
 10
4.485923999999999
 20
2.242961999999999
 10
53.83108799999999
 20
2.242961999999999
 10
4.485923999999999
 20
2.242961999999999
 10
53.83108799999999
 20
2.242961999999999
 10
4.485923999999999
 20
2.242961999999999
 10
53.83108799999999
 20
2.242961999999999
 10
4.485923999999999
 20
2.242961999999999
 10
53.83108799999999
 20
2.242961999999999
 10
4.485923999999999
 20
2.242961999999999
 10
53.83108799999999
 20
2.242961999999999
 10
4.485923999999999
 20
2.242961999999999
 10
53.83108799999999
 20
2.242961999999999
 10
4.485923999999999
 20
2.242961999999999
 10
53.83108799999999
 20
2.242961999999999
 10
4.485923999999999
 20
2.242961999999999
 10
53.83108799999999
 20
2.242961999999999
 10
4.485923999999999
 20
2.242961999999999
 10
53.83108799999999
 20
2.242961999999999
 10
4.485923999999999
 20
2.242961999999999
 10
53.83108799999999
 20
2.242961999999999
 10
4.485923999999999
 20
2.242961999999999
 10
53.83108799999999
 20
2.242961999999999
 10
4.485923999999999
 20
2.242961999999999
 10
53.83108799999999
 20
2.242961999999999
 10
4.485923999999999
 20
2.242961999999999
 10
53.83108799999999
 20
2.242961999999999
 10
4.485923999999999
 20
2.242961999999999
 10
53.83108799999999
 20
2.242961999999999
 10
4.485923999999999
 20
2.242961999999999
  0
LWPOLYLINE
  5
6E
330
17
100
AcDbEntity
  8
main floor exterior line
100
AcDbPolyline
 90
48
 70
0
 10
53.83108799999999
 20
2.242961999999999
 10
53.83108799999999
 20
17.943696
 10
53.83108799999999
 20
2.242961999999999
 10
53.83108799999999
 20
17.943696
 10
53.83108799999999
 20
2.242961999999999
 10
53.83108799999999
 20
17.943696
 10
53.83108799999999
 20
2.242961999999999
 10
53.83108799999999
 20
17.943696
 10
53.83108799999999
 20
2.242961999999999
 10
53.83108799999999
 20
17.943696
 10
53.83108799999999
 20
2.242961999999999
 10
53.83108799999999
 20
17.943696
 10
53.83108799999999
 20
2.242961999999999
 10
53.83108799999999
 20
17.943696
 10
53.83108799999999
 20
2.242961999999999
 10
53.83108799999999
 20
17.943696
 10
53.83108799999999
 20
2.242961999999999
 10
53.83108799999999
 20
17.943696
 10
53.83108799999999
 20
2.242961999999999
 10
53.83108799999999
 20
17.943696
 10
53.83108799999999
 20
2.242961999999999
 10
53.83108799999999
 20
17.943696
 10
53.83108799999999
 20
2.242961999999999
 10
53.83108799999999
 20
17.943696
 10
53.83108799999999
 20
2.242961999999999
 10
53.83108799999999
 20
17.943696
 10
53.83108799999999
 20
2.242961999999999
 10
53.83108799999999
 20
17.943696
 10
53.83108799999999
 20
2.242961999999999
 10
53.83108799999999
 20
17.943696
 10
53.83108799999999
 20
2.242961999999999
 10
53.83108799999999
 20
17.943696
 10
53.83108799999999
 20
2.242961999999999
 10
53.83108799999999
 20
17.943696
 10
53.83108799999999
 20
2.242961999999999
 10
4.485923999999999
 20
2.242961999999999
 10
53.83108799999999
 20
2.242961999999999
 10
4.485923999999999
 20
2.242961999999999
 10
53.83108799999999
 20
2.242961999999999
 10
4.485923999999999
 20
2.242961999999999
 10
53.83108799999999
 20
2.242961999999999
 10
4.485923999999999
 20
2.242961999999999
 10
53.83108799999999
 20
2.242961999999999
 10
4.485923999999999
 20
2.242961999999999
 10
53.83108799999999
 20
2.242961999999999
 10
53.83108799999999
 20
17.943696
 10
4.485923999999999
 20
17.943696
 10
4.485923999999999
 20
2.242961999999999
  0
LWPOLYLINE
  5
6F
330
17
100
AcDbEntity
  8
main floor exterior line
100
AcDbPolyline
 90
2
 70
0
 10
36.77261433599999
 20
5.383108800000005
 10
53.83108799999999
 20
5.383108800000005
  0
LWPOLYLINE
  5
70
330
17
100
AcDbEntity
  8
main floor exterior line
100
AcDbPolyline
 90
2
 70
0
 10
36.77261433599999
 20
8.551367390400008
 10
53.83108799999999
 20
8.551367390400008
  0
LWPOLYLINE
  5
71
330
17
100
AcDbEntity
  8
main floor exterior line
100
AcDbPolyline
 90
2
 70
0
 10
36.77261433599999
 20
14.80354920000001
 10
53.83108799999999
 20
14.80354920000001
  0
LWPOLYLINE
  5
72
330
17
100
AcDbEntity
  8
main floor exterior line
100
AcDbPolyline
 90
2
 70
0
 10
36.77261433599999
 20
11.6634024
 10
53.83108799999999
 20
11.6634024
  0
LWPOLYLINE
  5
73
330
17
100
AcDbEntity
  8
main floor exterior line
100
AcDbPolyline
 90
13
 70
0
 10
7.850366999999999
 20
36.0554646192
 10
7.850366999999999
 20
57.4338830952
 10
6.168145499999999
 20
80.17889345856
 10
6.168145499999999
 20
35.0392533024
 10
28.40469133104
 20
35.0392533024
 10
28.40469133104
 20
57.78438329039999
 10
28.19442112007999
 20
35.6349840096
 10
28.4046963154
 20
57.78438329039999
 10
28.1944186279
 20
35.6349840096
 10
28.1944186279
 20
57.5741429856
 10
27.9841534013
 20
35.8452243144
 10
28.19442112007999
 20
57.5741429856
 10
27.98415090912
 20
35.84522431440001
  0
LWPOLYLINE
  5
74
330
17
100
AcDbEntity
  8
main floor exterior line
100
AcDbPolyline
 90
3
 70
0
 10
9.5325885
 20
31.67481030239999
 10
38.21767998719999
 20
30.55332930239999
 10
7.850366999999999
 20
30.55332930239999
  0
LWPOLYLINE
  5
75
330
17
100
AcDbEntity
  8
main floor exterior line
100
AcDbPolyline
 90
3
 70
0
 10
9.5325885
 20
83.54333645855999
 10
38.21767998719999
 20
84.66481745856
 10
7.850366999999999
 20
84.66481745856
  0
LWPOLYLINE
  5
76
330
17
100
AcDbEntity
  8
main floor exterior line
100
AcDbPolyline
 90
14
 70
0
 10
14.03603750976
 20
58.27484431439999
 10
14.03603750976
 20
35.2145034
 10
14.52667797072
 20
57.9946235952
 10
14.31640775976
 20
35.42474370479999
 10
14.5266804629
 20
57.9946235952
 10
14.3164027754
 20
35.42474370479999
 10
14.7369456895
 20
57.01340248559999
 10
14.5266804629
 20
36.47624429039999
 10
14.9472482988
 20
57.01340248559999
 10
14.7369456895
 20
36.47624429039999
 10
14.73694818168
 20
57.01340248559999
 10
14.52667797072
 20
36.4762442904
 10
14.9472482988
 20
57.01340248559999
 10
14.73694818168
 20
36.4762442904
  0
LWPOLYLINE
  5
77
330
17
100
AcDbEntity
  8
main floor exterior line
100
AcDbPolyline
 90
2
 70
0
 10
28.40469133104
 20
80.17889345856
 10
6.168145499999999
 20
80.17889345856
  0
LWPOLYLINE
  5
78
330
17
100
AcDbEntity
  8
main floor exterior line
100
AcDbPolyline
 90
3
 70
0
 10
49.15197020639999
 20
77.93593145855999
 10
30.64753370639999
 20
57.889353912
 10
49.15197020639999
 20
37.2822153024
  0
LWPOLYLINE
  5
79
330
17
100
AcDbEntity
  8
main floor exterior line
100
AcDbPolyline
 90
15
 70
0
 10
30.64753370639999
 20
37.2822153024
 10
30.64753370639999
 20
57.04839269279999
 10
57.03762647519999
 20
57.04839269279999
 10
30.64753370639999
 20
56.97811321679999
 10
57.03762647519999
 20
57.8193734976
 10
30.64753370639999
 20
57.04839269279999
 10
57.03762647519999
 20
57.889353912
 10
30.64753370639999
 20
57.8193734976
 10
57.03762647519999
 20
56.97811321679999
 10
30.64753370639999
 20
57.889353912
 10
57.03762647519999
 20
56.97811321679999
 10
30.6475337064
 20
57.889353912
 10
57.03738722591999
 20
57.8193734976
 10
30.64753370639999
 20
57.04836278664
 10
30.64753370639999
 20
77.93593145855999
  0
LWPOLYLINE
  5
7A
330
17
100
AcDbEntity
  8
main floor exterior line
100
AcDbPolyline
 90
2
 70
0
 10
53.21741359679999
 20
62.48981850479999
 10
30.57755329199999
 20
62.48981850479999
  0
LWPOLYLINE
  5
7B
330
17
100
AcDbEntity
  8
main floor exterior line
100
AcDbPolyline
 90
3
 70
0
 10
44.88017431199999
 20
78.77704220856
 10
44.88017431199999
 20
57.8193734976
 10
44.88017431199999
 20
36.44125408319999
  0
LWPOLYLINE
  5
7C
330
17
100
AcDbEntity
  8
main floor exterior line
100
AcDbPolyline
 90
2
 70
0
 10
38.7482152656
 20
78.87597178583998
 10
18.15824279184
 20
78.87597178583998
  0
LWPOLYLINE
  5
7D
330
17
100
AcDbEntity
  8
main floor exterior line
100
AcDbPolyline
 90
2
 70
0
 10
29.80654258104
 20
72.12525428904
 10
55.74089537759999
 20
72.12525428904
  0
LWPOLYLINE
  5
7E
330
17
100
AcDbEntity
  8
main floor exterior line
100
AcDbPolyline
 90
2
 70
0
 10
98.84883064799999
 20
32.41738025519999
 10
140.5700172792
 20
32.41738025519999
  0
LWPOLYLINE
  5
7F
330
17
100
AcDbEntity
  8
main floor exterior line
100
AcDbPolyline
 90
2
 70
0
 10
92.8936170072
 20
35.742347124
 10
92.8936170072
 20
55.2958917168
  0
LWPOLYLINE
  5
80
330
17
100
AcDbEntity
  8
main floor exterior line
100
AcDbPolyline
 90
2
 70
0
 10
92.8936170072
 20
79.5375259512
 10
92.8936170072
 20
61.32407638799999
  0
LWPOLYLINE
  5
81
330
17
100
AcDbEntity
  8
main floor exterior line
100
AcDbPolyline
 90
2
 70
0
 10
95.1365790072
 20
67.42822270559999
 10
75.71432245679999
 20
67.42822270559999
  0
LWPOLYLINE
  5
82
330
17
100
AcDbEntity
  8
main floor exterior line
100
AcDbPolyline
 90
3
 70
0
 10
68.35770615839998
 20
88.87736924999999
 10
69.4791871584
 20
66.167379
 10
102.2123764632
 20
66.167379
  0
LWPOLYLINE
  5
83
330
17
100
AcDbEntity
  8
main floor exterior line
100
AcDbPolyline
 90
25
 70
0
 10
79.81445699279999
 20
63.39178829039999
 10
102.1423960488
 20
63.39178829039999
 10
81.04120767599998
 20
62.16503760719999
 10
102.1423960488
 20
62.16503760719999
 10
81.041207676
 20
62.16503760719999
 10
102.1423960488
 20
62.09505719279998
 10
81.08965565519999
 20
62.09505719279998
 10
102.14227642416
 20
62.09505719279998
 10
81.11118809039999
 20
61.32404648183999
 10
102.2123764632
 20
59.71871371919999
 10
81.6234806112
 20
61.32407638799999
 10
102.1423960488
 20
61.32407638799999
 10
81.67192859039999
 20
61.25379691199998
 10
102.1423960488
 20
61.253796912
 10
81.67192859039999
 20
61.253796912
 10
102.1423960488
 20
60.0273452904
 10
102.1423960488
 20
43.45036080240001
 10
102.983357268
 20
78.77704220856
 10
102.983357268
 20
44.29162108319999
 10
102.983357268
 20
78.77703722419999
 10
102.983357268
 20
44.29162108319999
 10
123.801035244
 20
43.5203412168
 10
102.2123764632
 20
43.5203412168
 10
124.5720160488
 20
44.29162108319999
 10
102.983357268
 20
44.29162108319999
  0
LWPOLYLINE
  5
84
330
17
100
AcDbEntity
  8
main floor exterior line
100
AcDbPolyline
 90
12
 70
0
 10
138.6150516
 20
79.37094864
 10
104.76127848
 20
78.89245007999999
 10
137.83749144
 20
79.84944719999999
 10
104.3853580488
 20
78.77704220856
 10
138.0297880488
 20
78.77704220856
 10
104.3853580488
 20
78.77704220856
 10
138.029763127
 20
78.77703722419999
 10
138.0297880488
 20
45.6933228024
 10
138.0297880488
 20
78.77704220856
 10
138.029763127
 20
45.6933228024
 10
105.4368586344
 20
46.674543912
 10
105.9975991344
 20
81.02000420856
  0
LWPOLYLINE
  5
85
330
17
100
AcDbEntity
  8
main floor exterior line
100
AcDbPolyline
 90
6
 70
0
 10
104.3853580488
 20
48.5741831952
 10
138.0297880488
 20
48.5741831952
 10
139.431489768
 20
75.97333970855999
 10
139.431489768
 20
48.4970253024
 10
139.431489768
 20
75.97333970855999
 10
138.0297880488
 20
48.4970253024
  0
LWPOLYLINE
  5
86
330
17
100
AcDbEntity
  8
main floor exterior line
100
AcDbPolyline
 90
2
 70
0
 10
134.1551459592
 20
45.6933228024
 10
134.1551459592
 20
78.77704220856
  0
LWPOLYLINE
  5
87
330
17
100
AcDbEntity
  8
main floor exterior line
100
AcDbPolyline
 90
4
 70
0
 10
105.4368586344
 20
46.674543912
 10
105.4368586344
 20
77.72563134143999
 10
136.9782874632
 20
77.72563134143999
 10
136.9782874632
 20
46.674543912
  0
LWPOLYLINE
  5
88
330
17
100
AcDbEntity
  8
main floor exterior line
100
AcDbPolyline
 90
2
 70
0
 10
144.3905292191999
 20
75.97333970855999
 10
144.3905292191999
 20
48.4970253024
  0
LWPOLYLINE
  5
89
330
17
100
AcDbEntity
  8
main floor exterior line
100
AcDbPolyline
 90
3
 70
0
 10
107.892453432
 20
86.3191340191
 10
125.5532371584
 20
86.03664292392
 10
148.5962325
 20
86.03664292392
  0
LWPOLYLINE
  5
8A
330
17
100
AcDbEntity
  8
main floor exterior line
100
AcDbPolyline
 90
2
 70
0
 10
84.9696808536
 20
88.03625849999999
 10
101.7918958536
 20
88.03625849999999
  0
LWPOLYLINE
  5
8B
330
17
100
AcDbEntity
  8
main floor exterior line
100
AcDbPolyline
 90
19
 70
0
 10
102.1423960488
 20
62.16503760719999
 10
101.5816555488
 20
76.81445045855999
 10
101.5816555488
 20
60.132315912
 10
102.1423960488
 20
43.45036080240001
 10
123.730755768
 20
43.45036080240001
 10
102.7031365488
 20
44.0111013024
 10
124.291496268
 20
44.0111013024
 10
102.7031365488
 20
44.01110130239999
 10
123.730755768
 20
43.4503608024
 10
102.983357268
 20
44.29162108319999
 10
124.5720160488
 20
44.29162108319999
 10
102.983357268
 20
44.29162108319999
 10
125.973717768
 20
45.6933228024
 10
104.3853580488
 20
45.6933228024
 10
125.973717768
 20
45.6933228024
 10
104.3853580488
 20
45.6933228024
 10
125.51615352
 20
45.3078324
 10
103.923906
 20
44.35083528
 10
124.7086872
 20
44.82933384
  0
LWPOLYLINE
  5
8C
330
17
100
AcDbEntity
  8
main floor exterior line
100
AcDbPolyline
 90
2
 70
0
 10
106.5583396344
 20
47.235284412
 10
127.0252183536
 20
47.235284412
  0
LWPOLYLINE
  5
8D
330
17
100
AcDbEntity
  8
main floor exterior line
100
AcDbPolyline
 90
2
 70
0
 10
141.7860017448
 20
41.5632821064
 10
123.874305336
 20
41.5632821064
  0
LWPOLYLINE
  5
8E
330
17
100
AcDbEntity
  8
main floor exterior line
100
AcDbPolyline
 90
2
 70
0
 10
94.9260396408
 20
62.09505719279998
 10
94.9260396408
 20
78.00600159144
  0
LWPOLYLINE
  5
8F
330
17
100
AcDbEntity
  8
main floor exterior line
100
AcDbPolyline
 90
2
 70
0
 10
94.9260396408
 20
54.80543069279999
 10
94.9260396408
 20
37.212234888
  0
LWPOLYLINE
  5
90
330
17
100
AcDbEntity
  8
main floor exterior line
100
AcDbPolyline
 90
2
 70
0
 10
37.8893103504
 20
74.63566707791999
 10
18.99935354184
 20
74.63566707791999
  0
LWPOLYLINE
  5
91
330
17
100
AcDbEntity
  8
main floor exterior line
100
AcDbPolyline
 90
2
 70
0
 10
30.57755329199999
 20
48.5741831952
 10
49.2222496824
 20
48.5741831952
  0
LWPOLYLINE
  5
92
330
17
100
AcDbEntity
  8
main floor exterior line
100
AcDbPolyline
 90
2
 70
0
 10
35.85120554639999
 20
65.57972295599998
 10
18.84168826632
 20
65.57972295599998
  0
LWPOLYLINE
  5
93
330
17
100
AcDbEntity
  8
main floor exterior line
100
AcDbPolyline
 90
3
 70
0
 10
6.168145499999999
 20
94.76514449999999
 10
22.7308373357
 20
94.76514449999999
 10
6.168145499999999
 20
94.76514449999999
  0
LWPOLYLINE
  5
94
330
17
100
AcDbEntity
  8
main floor exterior line
100
AcDbPolyline
 90
3
 70
0
 10
22.7308373357
 20
87.19514774999999
 10
6.168145499999999
 20
87.19514774999999
 10
22.73083484352
 20
87.19514774999999
  0
LWPOLYLINE
  5
95
330
17
100
AcDbEntity
  8
main floor exterior line
100
AcDbPolyline
 90
2
 70
0
 10
28.40469133104
 20
18.89321658
 10
28.40469133104
 20
35.0392533024
  0
LWPOLYLINE
  5
96
330
17
100
AcDbEntity
  8
main floor interior line
100
AcDbPolyline
 90
8
 70
0
 10
81.67192859039999
 20
56.97811321679999
 10
65.65897427999998
 20
56.97811321679999
 10
81.67192859039999
 20
56.97811321679999
 10
65.65897427999998
 20
56.97811321679999
 10
81.6234806112
 20
57.04839269279999
 10
65.65897427999998
 20
57.04839269279999
 10
81.60203789447999
 20
57.8193734976
 10
65.65897427999998
 20
57.04836278664
  0
LWPOLYLINE
  5
97
330
17
100
AcDbEntity
  8
main floor exterior line
100
AcDbPolyline
 90
14
 70
0
 10
53.83108799999999
 20
17.943696
 10
53.83108799999999
 20
2.242961999999999
 10
53.83108799999999
 20
17.943696
 10
53.83108799999999
 20
2.242961999999999
 10
53.83108799999999
 20
17.943696
 10
53.83108799999999
 20
2.242961999999999
 10
53.83108799999999
 20
17.943696
 10
53.83108799999999
 20
2.242961999999999
 10
53.83108799999999
 20
17.943696
 10
53.83108799999999
 20
2.242961999999999
 10
53.83108799999999
 20
17.943696
 10
53.83108799999999
 20
2.242961999999999
 10
53.83108799999999
 20
17.943696
 10
53.83108799999999
 20
2.242961999999999
  0
ENDSEC
  0
SECTION
  2
OBJECTS
  0
DICTIONARY
  5
A
330
0
100
AcDbDictionary
281
1
  3
ACAD_COLOR
350
B
  3
ACAD_GROUP
350
C
  3
ACAD_LAYOUT
350
D
  3
ACAD_MATERIAL
350
E
  3
ACAD_MLEADERSTYLE
350
F
  3
ACAD_MLINESTYLE
350
10
  3
ACAD_PLOTSETTINGS
350
11
  3
ACAD_PLOTSTYLENAME
350
12
  3
ACAD_SCALELIST
350
14
  3
ACAD_TABLESTYLE
350
15
  3
ACAD_VISUALSTYLE
350
16
  3
EZDXF_META
350
2D
  0
DICTIONARY
  5
B
330
A
100
AcDbDictionary
281
1
  0
DICTIONARY
  5
C
330
A
100
AcDbDictionary
281
1
  0
DICTIONARY
  5
D
330
A
100
AcDbDictionary
281
1
  3
Model
350
1A
  3
Layout1
350
1E
  0
DICTIONARY
  5
E
330
A
100
AcDbDictionary
281
1
  3
ByBlock
350
1F
  3
ByLayer
350
20
  3
Global
350
21
  0
DICTIONARY
  5
F
330
A
100
AcDbDictionary
281
1
  3
Standard
350
2C
  0
DICTIONARY
  5
10
330
A
100
AcDbDictionary
281
1
  3
Standard
350
22
  0
DICTIONARY
  5
11
330
A
100
AcDbDictionary
281
1
  0
ACDBDICTIONARYWDFLT
  5
12
330
A
100
AcDbDictionary
281
1
  3
Normal
350
13
100
AcDbDictionaryWithDefault
340
13
  0
ACDBPLACEHOLDER
  5
13
330
12
  0
DICTIONARY
  5
14
330
A
100
AcDbDictionary
281
1
  0
DICTIONARY
  5
15
330
A
100
AcDbDictionary
281
1
  0
DICTIONARY
  5
16
330
A
100
AcDbDictionary
281
1
  0
LAYOUT
  5
1A
330
D
100
AcDbPlotSettings
  1

  4
A3
  6

 40
7.5
 41
20.0
 42
7.5
 43
20.0
 44
420.0
 45
297.0
 46
0.0
 47
0.0
 48
0.0
 49
0.0
140
0.0
141
0.0
142
1.0
143
1.0
 70
1024
 72
1
 73
0
 74
5
  7

 75
16
 76
0
 77
2
 78
300
147
1.0
148
0.0
149
0.0
100
AcDbLayout
  1
Model
 70
1
 71
0
 10
0.0
 20
0.0
 11
420.0
 21
297.0
 12
0.0
 22
0.0
 32
0.0
 14
1e+20
 24
1e+20
 34
1e+20
 15
-1e+20
 25
-1e+20
 35
-1e+20
146
0.0
 13
0.0
 23
0.0
 33
0.0
 16
1.0
 26
0.0
 36
0.0
 17
0.0
 27
1.0
 37
0.0
 76
1
330
17
  0
LAYOUT
  5
1E
330
D
100
AcDbPlotSettings
  1

  4
A3
  6

 40
7.5
 41
20.0
 42
7.5
 43
20.0
 44
420.0
 45
297.0
 46
0.0
 47
0.0
 48
0.0
 49
0.0
140
0.0
141
0.0
142
1.0
143
1.0
 70
0
 72
1
 73
0
 74
5
  7

 75
16
 76
0
 77
2
 78
300
147
1.0
148
0.0
149
0.0
100
AcDbLayout
  1
Layout1
 70
1
 71
1
 10
0.0
 20
0.0
 11
420.0
 21
297.0
 12
0.0
 22
0.0
 32
0.0
 14
1e+20
 24
1e+20
 34
1e+20
 15
-1e+20
 25
-1e+20
 35
-1e+20
146
0.0
 13
0.0
 23
0.0
 33
0.0
 16
1.0
 26
0.0
 36
0.0
 17
0.0
 27
1.0
 37
0.0
 76
1
330
1B
  0
MATERIAL
  5
1F
102
{ACAD_REACTORS
330
E
102
}
330
E
100
AcDbMaterial
  1
ByBlock
  2

 70
0
 40
1.0
 71
1
 41
1.0
 91
-1023410177
 42
1.0
 72
1
  3

 73
1
 74
1
 75
1
 44
0.5
 73
0
 45
1.0
 46
1.0
 77
1
  4

 78
1
 79
1
170
1
 48
1.0
171
1
  6

172
1
173
1
174
1
140
1.0
141
1.0
175
1
  7

176
1
177
1
178
1
143
1.0
179
1
  8

270
1
271
1
272
1
145
1.0
146
1.0
273
1
  9

274
1
275
1
276
1
 42
1.0
 72
1
  3

 73
1
 74
1
 75
1
 94
63
  0
MATERIAL
  5
20
102
{ACAD_REACTORS
330
E
102
}
330
E
100
AcDbMaterial
  1
ByLayer
  2

 70
0
 40
1.0
 71
1
 41
1.0
 91
-1023410177
 42
1.0
 72
1
  3

 73
1
 74
1
 75
1
 44
0.5
 73
0
 45
1.0
 46
1.0
 77
1
  4

 78
1
 79
1
170
1
 48
1.0
171
1
  6

172
1
173
1
174
1
140
1.0
141
1.0
175
1
  7

176
1
177
1
178
1
143
1.0
179
1
  8

270
1
271
1
272
1
145
1.0
146
1.0
273
1
  9

274
1
275
1
276
1
 42
1.0
 72
1
  3

 73
1
 74
1
 75
1
 94
63
  0
MATERIAL
  5
21
102
{ACAD_REACTORS
330
E
102
}
330
E
100
AcDbMaterial
  1
Global
  2

 70
0
 40
1.0
 71
1
 41
1.0
 91
-1023410177
 42
1.0
 72
1
  3

 73
1
 74
1
 75
1
 44
0.5
 73
0
 45
1.0
 46
1.0
 77
1
  4

 78
1
 79
1
170
1
 48
1.0
171
1
  6

172
1
173
1
174
1
140
1.0
141
1.0
175
1
  7

176
1
177
1
178
1
143
1.0
179
1
  8

270
1
271
1
272
1
145
1.0
146
1.0
273
1
  9

274
1
275
1
276
1
 42
1.0
 72
1
  3

 73
1
 74
1
 75
1
 94
63
  0
MLINESTYLE
  5
22
102
{ACAD_REACTORS
330
10
102
}
330
10
100
AcDbMlineStyle
  2
Standard
 70
0
  3

 62
256
 51
90.0
 52
90.0
 71
2
 49
0.5
 62
256
  6
BYLAYER
 49
-0.5
 62
256
  6
BYLAYER
  0
MLEADERSTYLE
  5
2C
102
{ACAD_REACTORS
330
F
102
}
330
F
100
AcDbMLeaderStyle
179
2
170
2
171
1
172
0
 90
2
 40
0.0
 41
0.0
173
1
 91
-1056964608
 92
-2
290
1
 42
2.0
291
1
 43
8.0
  3
Standard
 44
4.0
300

342
29
174
1
175
1
176
0
178
1
 93
-1056964608
 45
4.0
292
0
297
0
 46
4.0
 94
-1056964608
 47
1.0
 49
1.0
140
1.0
294
1
141
0.0
177
0
142
1.0
295
0
296
0
143
3.75
271
0
272
9
273
9
  0
DICTIONARY
  5
2D
330
A
100
AcDbDictionary
280
1
281
1
  3
CREATED_BY_EZDXF
350
2E
  3
WRITTEN_BY_EZDXF
350
9A
  0
DICTIONARYVAR
  5
2E
330
2D
100
DictionaryVariables
280
0
  1
1.4.2 @ 2025-10-07T18:06:49.276832+00:00
  0
DICTIONARYVAR
  5
9A
330
2D
100
DictionaryVariables
280
0
  1
1.4.2 @ 2025-10-07T18:06:49.294852+00:00
  0
ENDSEC
  0
EOF
